<svg width="41" height="40" viewBox="0 0 41 40" fill="none" xmlns="http://www.w3.org/2000/svg">
<path d="M20.4995 39.355C9.82765 39.355 1.14453 30.6719 1.14453 20C1.14453 9.32814 9.82765 0.64502 20.4995 0.64502C31.1714 0.64502 39.8545 9.32814 39.8545 20C39.8545 30.6763 31.1714 39.355 20.4995 39.355ZM20.4995 1.97679C10.5601 1.97679 2.4763 10.0606 2.4763 20C2.4763 29.9394 10.5601 38.0233 20.4995 38.0233C30.4389 38.0233 38.5228 29.9394 38.5228 20C38.5228 10.065 30.4389 1.97679 20.4995 1.97679Z" fill="black"/>
<path d="M21.1169 9.25684C19.279 9.25684 17.7919 10.744 17.7919 12.5818V16.0622L15.377 16.0977V19.5558L17.7919 19.5203V30.7427H21.9292V19.5248H25.2542L25.6227 16.0666H21.9292C21.9292 15.3031 21.9292 14.4596 21.9292 13.6517C21.9292 13.1367 22.3465 12.7194 22.8615 12.7194H25.6182V9.26128H21.1169V9.25684Z" fill="black"/>
<path d="M20.4995 39.355C9.82765 39.355 1.14453 30.6719 1.14453 20C1.14453 9.32814 9.82765 0.64502 20.4995 0.64502C31.1714 0.64502 39.8545 9.32814 39.8545 20C39.8545 30.6763 31.1714 39.355 20.4995 39.355ZM20.4995 1.97679C10.5601 1.97679 2.4763 10.0606 2.4763 20C2.4763 29.9394 10.5601 38.0233 20.4995 38.0233C30.4389 38.0233 38.5228 29.9394 38.5228 20C38.5228 10.065 30.4389 1.97679 20.4995 1.97679Z" fill="url(#paint0_linear_130_366)"/>
<path d="M21.1169 9.25684C19.279 9.25684 17.7919 10.744 17.7919 12.5818V16.0622L15.377 16.0977V19.5558L17.7919 19.5203V30.7427H21.9292V19.5248H25.2542L25.6227 16.0666H21.9292C21.9292 15.3031 21.9292 14.4596 21.9292 13.6517C21.9292 13.1367 22.3465 12.7194 22.8615 12.7194H25.6182V9.26128H21.1169V9.25684Z" fill="url(#paint1_linear_130_366)"/>
<defs>
<linearGradient id="paint0_linear_130_366" x1="20.4995" y1="0.64502" x2="20.4995" y2="39.355" gradientUnits="userSpaceOnUse">
<stop offset="0.19" stop-color="#F0CB9B"/>
<stop offset="0.575" stop-color="#FFEACE"/>
<stop offset="0.89" stop-color="#C89655"/>
</linearGradient>
<linearGradient id="paint1_linear_130_366" x1="20.4998" y1="9.25684" x2="20.4998" y2="30.7427" gradientUnits="userSpaceOnUse">
<stop offset="0.19" stop-color="#F0CB9B"/>
<stop offset="0.575" stop-color="#FFEACE"/>
<stop offset="0.89" stop-color="#C89655"/>
</linearGradient>
</defs>
</svg>
