<svg width="41" height="40" viewBox="0 0 41 40" fill="none" xmlns="http://www.w3.org/2000/svg">
<path d="M20.4995 39.355C9.82764 39.355 1.14453 30.6719 1.14453 20C1.14453 9.32814 9.82764 0.64502 20.4995 0.64502C31.1714 0.64502 39.8545 9.32814 39.8545 20C39.8545 30.6763 31.1714 39.355 20.4995 39.355ZM20.4995 1.97679C10.5601 1.97679 2.4763 10.0606 2.4763 20C2.4763 29.9394 10.5601 38.0233 20.4995 38.0233C30.4389 38.0233 38.5228 29.9394 38.5228 20C38.5228 10.065 30.4345 1.97679 20.4995 1.97679Z" fill="url(#paint0_linear_130_328)"/>
<path d="M25.3 30.5478H15.6891C12.524 30.5478 9.94922 27.973 9.94922 24.8079V15.1969C9.94922 12.0318 12.524 9.45703 15.6891 9.45703H25.3C28.4652 9.45703 31.04 12.0318 31.04 15.1969V24.8079C31.04 27.973 28.4652 30.5478 25.3 30.5478ZM15.6891 10.5224C13.1144 10.5224 11.0191 12.6178 11.0191 15.1925V24.8034C11.0191 27.3782 13.1144 29.4735 15.6891 29.4735H25.3C27.8748 29.4735 29.9701 27.3782 29.9701 24.8034V15.1969C29.9701 12.6222 27.8748 10.5269 25.3 10.5269L15.6891 10.5224Z" fill="url(#paint1_linear_130_328)"/>
<path d="M20.496 26.5433C16.8914 26.5433 13.957 23.609 13.957 19.9999C13.957 16.3908 16.8914 13.4609 20.496 13.4609C24.1051 13.4609 27.035 16.3953 27.035 19.9999C27.035 23.609 24.1007 26.5433 20.496 26.5433ZM20.496 14.5308C17.4773 14.5308 15.0224 16.9857 15.0224 20.0043C15.0224 23.023 17.4773 25.4779 20.496 25.4779C23.5147 25.4779 25.9696 23.023 25.9696 20.0043C25.9696 16.9857 23.5147 14.5308 20.496 14.5308Z" fill="url(#paint2_linear_130_328)"/>
<path d="M27.9749 13.776C27.9749 14.3176 27.5354 14.7615 26.9894 14.7615C26.4478 14.7615 26.0039 14.3221 26.0039 13.776C26.0039 13.2344 26.4434 12.7905 26.9894 12.7905C27.531 12.795 27.9749 13.2344 27.9749 13.776Z" fill="url(#paint3_linear_130_328)"/>
<path d="M20.4995 39.355C9.82764 39.355 1.14453 30.6719 1.14453 20C1.14453 9.32814 9.82764 0.64502 20.4995 0.64502C31.1714 0.64502 39.8545 9.32814 39.8545 20C39.8545 30.6763 31.1714 39.355 20.4995 39.355ZM20.4995 1.97679C10.5601 1.97679 2.4763 10.0606 2.4763 20C2.4763 29.9394 10.5601 38.0233 20.4995 38.0233C30.4389 38.0233 38.5228 29.9394 38.5228 20C38.5228 10.065 30.4345 1.97679 20.4995 1.97679Z" fill="url(#paint4_linear_130_328)"/>
<path d="M25.3 30.5478H15.6891C12.524 30.5478 9.94922 27.973 9.94922 24.8079V15.1969C9.94922 12.0318 12.524 9.45703 15.6891 9.45703H25.3C28.4652 9.45703 31.04 12.0318 31.04 15.1969V24.8079C31.04 27.973 28.4652 30.5478 25.3 30.5478ZM15.6891 10.5224C13.1144 10.5224 11.0191 12.6178 11.0191 15.1925V24.8034C11.0191 27.3782 13.1144 29.4735 15.6891 29.4735H25.3C27.8748 29.4735 29.9701 27.3782 29.9701 24.8034V15.1969C29.9701 12.6222 27.8748 10.5269 25.3 10.5269L15.6891 10.5224Z" fill="url(#paint5_linear_130_328)"/>
<path d="M20.496 26.5433C16.8914 26.5433 13.957 23.609 13.957 19.9999C13.957 16.3908 16.8914 13.4609 20.496 13.4609C24.1051 13.4609 27.035 16.3953 27.035 19.9999C27.035 23.609 24.1007 26.5433 20.496 26.5433ZM20.496 14.5308C17.4773 14.5308 15.0224 16.9857 15.0224 20.0043C15.0224 23.023 17.4773 25.4779 20.496 25.4779C23.5147 25.4779 25.9696 23.023 25.9696 20.0043C25.9696 16.9857 23.5147 14.5308 20.496 14.5308Z" fill="url(#paint6_linear_130_328)"/>
<path d="M27.9749 13.776C27.9749 14.3176 27.5354 14.7615 26.9894 14.7615C26.4478 14.7615 26.0039 14.3221 26.0039 13.776C26.0039 13.2344 26.4434 12.7905 26.9894 12.7905C27.531 12.795 27.9749 13.2344 27.9749 13.776Z" fill="url(#paint7_linear_130_328)"/>
<defs>
<linearGradient id="paint0_linear_130_328" x1="20.4995" y1="0.64502" x2="20.4995" y2="39.355" gradientUnits="userSpaceOnUse">
<stop offset="0.19" stop-color="#F0CB9B"/>
<stop offset="0.575" stop-color="#FFEACE"/>
<stop offset="0.89" stop-color="#C89655"/>
</linearGradient>
<linearGradient id="paint1_linear_130_328" x1="20.4946" y1="9.45703" x2="20.4946" y2="30.5478" gradientUnits="userSpaceOnUse">
<stop offset="0.19" stop-color="#F0CB9B"/>
<stop offset="0.575" stop-color="#FFEACE"/>
<stop offset="0.89" stop-color="#C89655"/>
</linearGradient>
<linearGradient id="paint2_linear_130_328" x1="20.496" y1="13.4609" x2="20.496" y2="26.5433" gradientUnits="userSpaceOnUse">
<stop offset="0.19" stop-color="#F0CB9B"/>
<stop offset="0.575" stop-color="#FFEACE"/>
<stop offset="0.89" stop-color="#C89655"/>
</linearGradient>
<linearGradient id="paint3_linear_130_328" x1="26.9894" y1="12.7905" x2="26.9894" y2="14.7615" gradientUnits="userSpaceOnUse">
<stop offset="0.19" stop-color="#F0CB9B"/>
<stop offset="0.575" stop-color="#FFEACE"/>
<stop offset="0.89" stop-color="#C89655"/>
</linearGradient>
<linearGradient id="paint4_linear_130_328" x1="20.4995" y1="0.64502" x2="20.4995" y2="39.355" gradientUnits="userSpaceOnUse">
<stop offset="0.19" stop-color="#F0CB9B"/>
<stop offset="0.575" stop-color="#FFEACE"/>
<stop offset="0.89" stop-color="#C89655"/>
</linearGradient>
<linearGradient id="paint5_linear_130_328" x1="20.4946" y1="9.45703" x2="20.4946" y2="30.5478" gradientUnits="userSpaceOnUse">
<stop offset="0.19" stop-color="#F0CB9B"/>
<stop offset="0.575" stop-color="#FFEACE"/>
<stop offset="0.89" stop-color="#C89655"/>
</linearGradient>
<linearGradient id="paint6_linear_130_328" x1="20.496" y1="13.4609" x2="20.496" y2="26.5433" gradientUnits="userSpaceOnUse">
<stop offset="0.19" stop-color="#F0CB9B"/>
<stop offset="0.575" stop-color="#FFEACE"/>
<stop offset="0.89" stop-color="#C89655"/>
</linearGradient>
<linearGradient id="paint7_linear_130_328" x1="26.9894" y1="12.7905" x2="26.9894" y2="14.7615" gradientUnits="userSpaceOnUse">
<stop offset="0.19" stop-color="#F0CB9B"/>
<stop offset="0.575" stop-color="#FFEACE"/>
<stop offset="0.89" stop-color="#C89655"/>
</linearGradient>
</defs>
</svg>
