<svg width="41" height="40" viewBox="0 0 41 40" fill="none" xmlns="http://www.w3.org/2000/svg">
<path d="M20.4995 39.355C9.82764 39.355 1.14453 30.6719 1.14453 20C1.14453 9.32814 9.82764 0.64502 20.4995 0.64502C31.1714 0.64502 39.8545 9.32814 39.8545 20C39.8545 30.6719 31.1758 39.355 20.4995 39.355ZM20.4995 1.97679C10.5601 1.97679 2.4763 10.0606 2.4763 20C2.4763 29.9394 10.5601 38.0233 20.4995 38.0233C30.4389 38.0233 38.5228 29.9394 38.5228 20C38.5228 10.065 30.4389 1.97679 20.4995 1.97679Z" fill="black"/>
<path d="M9.26417 14.2647C10.3163 14.2647 12.5625 14.2647 13.3216 14.2647C13.477 14.2647 13.6191 14.3579 13.6856 14.4999C14.6179 16.5287 15.7543 18.3621 17.1216 19.9779C17.237 20.1688 17.5256 20.1466 17.6099 19.938C18.0361 18.8992 18.8263 16.3688 17.2992 14.571C17.1615 14.4112 17.2193 14.1581 17.4101 14.0782C18.955 13.4345 20.4688 13.3413 21.9426 13.9983C22.2533 14.1359 22.4531 14.4422 22.4531 14.7841L22.7994 19.9957C22.7994 20.2265 23.0124 20.413 23.2388 20.3641C24.9346 20.0046 25.9334 17.4609 26.9234 14.8062C27.0433 14.4777 27.354 14.2602 27.7047 14.2602H31.4425C31.7488 14.2602 31.993 14.531 31.9397 14.8329C31.589 16.7151 29.6935 19.1567 28.7035 20.3331C28.3617 20.737 28.3573 21.3319 28.6991 21.7403L32.0418 25.7223C32.2815 26.0064 32.0773 26.4459 31.7044 26.4459H27.4739C27.1276 26.4459 26.7947 26.2994 26.5594 26.0464L23.6029 23.5826C23.4475 23.4139 23.1589 23.3562 23.0124 23.5293C22.644 23.9732 22.6751 24.5237 22.5019 25.7711C22.4487 26.1618 22.098 26.4414 21.7029 26.4414H18.8085C18.3956 26.4414 17.9917 26.3571 17.6188 26.1795C15.9585 25.3938 11.4261 22.606 8.87352 14.7974C8.79361 14.5399 8.98894 14.2647 9.26417 14.2647Z" fill="black"/>
<path d="M20.4995 39.355C9.82764 39.355 1.14453 30.6719 1.14453 20C1.14453 9.32814 9.82764 0.64502 20.4995 0.64502C31.1714 0.64502 39.8545 9.32814 39.8545 20C39.8545 30.6719 31.1758 39.355 20.4995 39.355ZM20.4995 1.97679C10.5601 1.97679 2.4763 10.0606 2.4763 20C2.4763 29.9394 10.5601 38.0233 20.4995 38.0233C30.4389 38.0233 38.5228 29.9394 38.5228 20C38.5228 10.065 30.4389 1.97679 20.4995 1.97679Z" fill="url(#paint0_linear_130_352)"/>
<path d="M9.26417 14.2647C10.3163 14.2647 12.5625 14.2647 13.3216 14.2647C13.477 14.2647 13.6191 14.3579 13.6856 14.4999C14.6179 16.5287 15.7543 18.3621 17.1216 19.9779C17.237 20.1688 17.5256 20.1466 17.6099 19.938C18.0361 18.8992 18.8263 16.3688 17.2992 14.571C17.1615 14.4112 17.2193 14.1581 17.4101 14.0782C18.955 13.4345 20.4688 13.3413 21.9426 13.9983C22.2533 14.1359 22.4531 14.4422 22.4531 14.7841L22.7994 19.9957C22.7994 20.2265 23.0124 20.413 23.2388 20.3641C24.9346 20.0046 25.9334 17.4609 26.9234 14.8062C27.0433 14.4777 27.354 14.2602 27.7047 14.2602H31.4425C31.7488 14.2602 31.993 14.531 31.9397 14.8329C31.589 16.7151 29.6935 19.1567 28.7035 20.3331C28.3617 20.737 28.3573 21.3319 28.6991 21.7403L32.0418 25.7223C32.2815 26.0064 32.0773 26.4459 31.7044 26.4459H27.4739C27.1276 26.4459 26.7947 26.2994 26.5594 26.0464L23.6029 23.5826C23.4475 23.4139 23.1589 23.3562 23.0124 23.5293C22.644 23.9732 22.6751 24.5237 22.5019 25.7711C22.4487 26.1618 22.098 26.4414 21.7029 26.4414H18.8085C18.3956 26.4414 17.9917 26.3571 17.6188 26.1795C15.9585 25.3938 11.4261 22.606 8.87352 14.7974C8.79361 14.5399 8.98894 14.2647 9.26417 14.2647Z" fill="url(#paint1_linear_130_352)"/>
<defs>
<linearGradient id="paint0_linear_130_352" x1="20.4995" y1="0.64502" x2="20.4995" y2="39.355" gradientUnits="userSpaceOnUse">
<stop offset="0.19" stop-color="#F0CB9B"/>
<stop offset="0.575" stop-color="#FFEACE"/>
<stop offset="0.89" stop-color="#C89655"/>
</linearGradient>
<linearGradient id="paint1_linear_130_352" x1="20.5003" y1="13.5483" x2="20.5003" y2="26.4459" gradientUnits="userSpaceOnUse">
<stop offset="0.19" stop-color="#F0CB9B"/>
<stop offset="0.575" stop-color="#FFEACE"/>
<stop offset="0.89" stop-color="#C89655"/>
</linearGradient>
</defs>
</svg>
