<svg width="40" height="40" viewBox="0 0 40 40" fill="none" xmlns="http://www.w3.org/2000/svg">
<g clip-path="url(#clip0_132_6570)">
<path d="M20.0015 39.355C9.32959 39.355 0.646484 30.6719 0.646484 20C0.646484 9.32814 9.32959 0.64502 20.0015 0.64502C30.6734 0.64502 39.3565 9.32814 39.3565 20C39.3565 30.6719 30.6734 39.355 20.0015 39.355ZM20.0015 1.97679C10.0621 1.97679 1.97825 10.0606 1.97825 20C1.97825 29.9394 10.0621 38.0233 20.0015 38.0233C29.9409 38.0233 38.0247 29.9394 38.0247 20C38.0247 10.0606 29.9365 1.97679 20.0015 1.97679Z" fill="url(#paint0_linear_132_6570)"/>
<path d="M9.85352 31.0936L11.6248 25.5978C9.02338 21.7668 9.40516 16.5684 12.5748 13.128C16.3437 9.04397 22.7317 8.78205 26.8158 12.5509C28.7957 14.3755 29.9454 16.8614 30.0564 19.5516C30.1674 22.2418 29.2218 24.8121 27.3973 26.792C24.241 30.219 19.0915 31.0225 15.0563 28.7541L9.85352 31.0936ZM19.9927 10.9528C19.8684 10.9528 19.7441 10.9573 19.6198 10.9617C17.2137 11.0594 14.9897 12.0893 13.3605 13.8561C10.4706 16.9902 10.1731 21.7579 12.6502 25.1983L12.81 25.4158L11.6114 29.1314L15.1229 27.5511L15.3626 27.6931C19.0027 29.8728 23.735 29.1891 26.6116 26.0684C28.2452 24.2971 29.0887 22.002 28.991 19.596C28.8933 17.1899 27.8634 14.9659 26.0966 13.3367C24.4142 11.7918 22.2611 10.9528 19.9927 10.9528Z" fill="url(#paint1_linear_132_6570)"/>
<path d="M19.1225 20.8611C19.4865 21.2251 20.2234 21.9176 20.7295 22.0419C21.2311 22.1662 21.604 21.8865 21.9991 21.5491C22.2033 21.3716 22.2965 21.1674 22.7981 21.0786C23.3175 20.9854 24.7825 21.9575 25.1332 22.3748C26.1986 23.64 25.2441 25.0561 23.8014 25.176C22.0168 25.3269 19.6418 23.7022 17.9638 22.0241C16.2858 20.3461 14.6655 17.9711 14.812 16.1866C14.9318 14.7438 16.3479 13.7894 17.6131 14.8548C18.0304 15.2055 19.0026 16.6704 18.9094 17.1898C18.8206 17.6915 18.6119 17.7847 18.4388 17.9889C18.1014 18.384 17.8218 18.7524 17.9461 19.2585C18.0615 19.7557 18.754 20.4971 19.1225 20.8611Z" fill="url(#paint2_linear_132_6570)"/>
<path d="M20.0015 39.355C9.32959 39.355 0.646484 30.6719 0.646484 20C0.646484 9.32814 9.32959 0.64502 20.0015 0.64502C30.6734 0.64502 39.3565 9.32814 39.3565 20C39.3565 30.6719 30.6734 39.355 20.0015 39.355ZM20.0015 1.97679C10.0621 1.97679 1.97825 10.0606 1.97825 20C1.97825 29.9394 10.0621 38.0233 20.0015 38.0233C29.9409 38.0233 38.0247 29.9394 38.0247 20C38.0247 10.0606 29.9365 1.97679 20.0015 1.97679Z" fill="url(#paint3_linear_132_6570)"/>
<path d="M9.85352 31.0936L11.6248 25.5978C9.02338 21.7668 9.40516 16.5684 12.5748 13.128C16.3437 9.04397 22.7317 8.78205 26.8158 12.5509C28.7957 14.3755 29.9454 16.8614 30.0564 19.5516C30.1674 22.2418 29.2218 24.8121 27.3973 26.792C24.241 30.219 19.0915 31.0225 15.0563 28.7541L9.85352 31.0936ZM19.9927 10.9528C19.8684 10.9528 19.7441 10.9573 19.6198 10.9617C17.2137 11.0594 14.9897 12.0893 13.3605 13.8561C10.4706 16.9902 10.1731 21.7579 12.6502 25.1983L12.81 25.4158L11.6114 29.1314L15.1229 27.5511L15.3626 27.6931C19.0027 29.8728 23.735 29.1891 26.6116 26.0684C28.2452 24.2971 29.0887 22.002 28.991 19.596C28.8933 17.1899 27.8634 14.9659 26.0966 13.3367C24.4142 11.7918 22.2611 10.9528 19.9927 10.9528Z" fill="url(#paint4_linear_132_6570)"/>
<path d="M19.1225 20.8611C19.4865 21.2251 20.2234 21.9176 20.7295 22.0419C21.2311 22.1662 21.604 21.8865 21.9991 21.5491C22.2033 21.3716 22.2965 21.1674 22.7981 21.0786C23.3175 20.9854 24.7825 21.9575 25.1332 22.3748C26.1986 23.64 25.2441 25.0561 23.8014 25.176C22.0168 25.3269 19.6418 23.7022 17.9638 22.0241C16.2858 20.3461 14.6655 17.9711 14.812 16.1866C14.9318 14.7438 16.3479 13.7894 17.6131 14.8548C18.0304 15.2055 19.0026 16.6704 18.9094 17.1898C18.8206 17.6915 18.6119 17.7847 18.4388 17.9889C18.1014 18.384 17.8218 18.7524 17.9461 19.2585C18.0615 19.7557 18.754 20.4971 19.1225 20.8611Z" fill="url(#paint5_linear_132_6570)"/>
</g>
<defs>
<linearGradient id="paint0_linear_132_6570" x1="20.0015" y1="0.64502" x2="20.0015" y2="39.355" gradientUnits="userSpaceOnUse">
<stop offset="0.19" stop-color="#F0CB9B"/>
<stop offset="0.575" stop-color="#FFEACE"/>
<stop offset="0.89" stop-color="#C89655"/>
</linearGradient>
<linearGradient id="paint1_linear_132_6570" x1="19.9593" y1="9.88623" x2="19.9593" y2="31.0936" gradientUnits="userSpaceOnUse">
<stop offset="0.19" stop-color="#F0CB9B"/>
<stop offset="0.575" stop-color="#FFEACE"/>
<stop offset="0.89" stop-color="#C89655"/>
</linearGradient>
<linearGradient id="paint2_linear_132_6570" x1="20.1954" y1="14.3999" x2="20.1954" y2="25.1857" gradientUnits="userSpaceOnUse">
<stop offset="0.19" stop-color="#F0CB9B"/>
<stop offset="0.575" stop-color="#FFEACE"/>
<stop offset="0.89" stop-color="#C89655"/>
</linearGradient>
<linearGradient id="paint3_linear_132_6570" x1="20.0015" y1="0.64502" x2="20.0015" y2="39.355" gradientUnits="userSpaceOnUse">
<stop offset="0.19" stop-color="#F0CB9B"/>
<stop offset="0.575" stop-color="#FFEACE"/>
<stop offset="0.89" stop-color="#C89655"/>
</linearGradient>
<linearGradient id="paint4_linear_132_6570" x1="19.9593" y1="9.88623" x2="19.9593" y2="31.0936" gradientUnits="userSpaceOnUse">
<stop offset="0.19" stop-color="#F0CB9B"/>
<stop offset="0.575" stop-color="#FFEACE"/>
<stop offset="0.89" stop-color="#C89655"/>
</linearGradient>
<linearGradient id="paint5_linear_132_6570" x1="20.1954" y1="14.3999" x2="20.1954" y2="25.1857" gradientUnits="userSpaceOnUse">
<stop offset="0.19" stop-color="#F0CB9B"/>
<stop offset="0.575" stop-color="#FFEACE"/>
<stop offset="0.89" stop-color="#C89655"/>
</linearGradient>
<clipPath id="clip0_132_6570">
<rect width="40" height="40" fill="white"/>
</clipPath>
</defs>
</svg>
