<svg width="41" height="40" viewBox="0 0 41 40" fill="none" xmlns="http://www.w3.org/2000/svg">
<path d="M20.5 39.3555C9.82785 39.3555 1.14453 30.6722 1.14453 20C1.14453 9.32786 9.82785 0.644531 20.5 0.644531C31.1721 0.644531 39.8555 9.32786 39.8555 20C39.8555 30.6766 31.1766 39.3555 20.5 39.3555ZM20.5 1.97633C10.5603 1.97633 2.47633 10.0604 2.47633 20C2.47633 29.9397 10.5603 38.0237 20.5 38.0237C30.4396 38.0237 38.5237 29.9397 38.5237 20C38.5237 10.0648 30.4396 1.97633 20.5 1.97633Z" fill="url(#paint0_linear_130_323)"/>
<path d="M30.5009 14.3399C30.3988 13.4653 29.7018 12.7684 28.8229 12.7062C23.2781 12.2978 17.729 12.2978 12.1843 12.7062C11.3053 12.7728 10.6083 13.4653 10.5062 14.3399C10.0578 18.1133 10.0578 21.8912 10.5062 25.6646C10.6083 26.5392 11.3053 27.2361 12.1843 27.2983C17.729 27.7067 23.2781 27.7067 28.8229 27.2983C29.7018 27.2317 30.3988 26.5392 30.5009 25.6646C30.9493 21.8912 30.9493 18.1133 30.5009 14.3399ZM23.7798 19.9379L18.7767 22.8013C18.5947 22.9078 18.3638 22.7746 18.3638 22.5615V16.8348C18.3638 16.6217 18.5902 16.493 18.7767 16.5951L23.7798 19.4584C23.9618 19.565 23.9618 19.8313 23.7798 19.9379Z" fill="url(#paint1_linear_130_323)"/>
<defs>
<linearGradient id="paint0_linear_130_323" x1="20.5" y1="0.644531" x2="20.5" y2="39.3555" gradientUnits="userSpaceOnUse">
<stop offset="0.19" stop-color="#F0CB9B"/>
<stop offset="0.575" stop-color="#FFEACE"/>
<stop offset="0.89" stop-color="#C89655"/>
</linearGradient>
<linearGradient id="paint1_linear_130_323" x1="20.5036" y1="12.3999" x2="20.5036" y2="27.6046" gradientUnits="userSpaceOnUse">
<stop offset="0.19" stop-color="#F0CB9B"/>
<stop offset="0.575" stop-color="#FFEACE"/>
<stop offset="0.89" stop-color="#C89655"/>
</linearGradient>
</defs>
</svg>
