<svg width="101" height="100" viewBox="0 0 101 100" fill="none" xmlns="http://www.w3.org/2000/svg">
<g clip-path="url(#clip0_36_1279)">
<path d="M50.5 100C78.1142 100 100.5 77.6142 100.5 50C100.5 22.3858 78.1142 0 50.5 0C22.8858 0 0.5 22.3858 0.5 50C0.5 77.6142 22.8858 100 50.5 100Z" fill="#494949"/>
<path d="M81.0967 35.0428C80.8954 36.1342 80.7613 37.2379 80.3162 38.2684C78.5174 42.4513 75.3832 44.8415 70.8345 45.3415C69.8223 45.4513 68.8284 45.3598 67.8406 45.183C67.4991 45.122 67.3284 45.2318 67.1393 45.4696C65.2735 47.8354 63.0235 49.7562 60.3832 51.2135C57.9198 52.5732 55.304 53.4452 52.5113 53.8171C48.4747 54.3598 44.5784 53.8659 40.8345 52.3049C36.865 50.6464 33.615 48.0489 31.1332 44.5184C29.7552 42.561 28.7064 40.4391 27.9808 38.1586C27.6271 37.0489 28.0967 36.3903 29.2735 36.3903C29.6028 36.3903 29.9259 36.3903 30.2613 36.3354C29.6942 35.8659 29.0723 35.5184 28.5296 35.0489C26.2613 33.0915 25.0906 30.5245 24.4564 27.6708C24.243 26.7318 24.1393 25.7745 24.0723 24.811C24.0174 24.0854 24.1393 23.494 24.7796 23.0793H26.5662C27.0967 23.311 27.6759 23.2989 28.2308 23.4025C31.0967 23.9635 33.6759 25.0732 35.7308 27.2196C35.9259 27.4208 36.0052 27.4452 36.1576 27.183C37.1271 25.494 38.4869 24.1708 40.0845 23.0793H40.7552C41.0723 23.3049 41.3528 23.561 41.5906 23.8781C42.2491 24.7684 42.7735 25.7318 43.1759 26.7501C44.2918 29.5549 44.1881 32.2501 42.4198 34.7989C42.054 35.3232 41.6271 35.7989 41.2125 36.3659C41.4381 36.3781 41.5845 36.3903 41.7247 36.3903C47.0479 36.3903 52.3771 36.3903 57.7003 36.3903C58.0174 36.3903 58.3345 36.3842 58.6515 36.3903C58.8893 36.3964 58.9808 36.3354 58.932 36.0671C58.6881 34.7928 58.7003 33.5184 58.9564 32.244C59.7735 28.2196 62.1028 25.4452 65.871 23.8415C66.7796 23.4574 67.7552 23.3476 68.6881 23.0732H71.1454C71.2247 23.2135 71.371 23.1769 71.493 23.2013C75.8467 23.9574 78.8223 26.3903 80.4259 30.5123C80.7857 31.433 80.8771 32.4025 81.0906 33.3537V35.0306L81.0967 35.0428ZM49.5357 38.6342C43.5601 38.6403 37.5845 38.6403 31.6089 38.6342C30.5296 38.6342 30.5052 38.6403 30.9259 39.6281C31.5418 41.0671 32.2125 42.5184 33.3162 43.6281C36.8345 47.1891 42.8162 47.6159 46.8832 44.7135C48.0357 43.8903 48.9625 42.7988 50.1393 42.0001C53.1637 39.9513 56.4686 39.2806 60.054 39.9269C62.2186 40.3171 64.1393 41.244 65.8284 42.6464C66.1332 42.9025 66.2796 42.8903 66.5052 42.5428C67.1698 41.5062 67.7186 40.4147 68.2186 39.2928C68.5052 38.6464 68.4869 38.622 67.7857 38.622C61.7003 38.622 55.615 38.622 49.5296 38.622L49.5357 38.6342ZM39.1271 48.7867C39.1759 48.9025 39.182 48.9513 39.2064 48.9635C43.3832 51.3903 47.871 52.3171 52.6393 51.5549C57.3284 50.8049 61.2796 48.622 64.5113 45.1342C64.804 44.8171 64.7796 44.6586 64.4564 44.4025C61.3284 41.9513 57.8771 41.3354 54.0845 42.5062C52.1759 43.0976 50.7186 44.3476 49.2796 45.6586C47.871 46.9452 46.2247 47.8171 44.3954 48.3476C42.682 48.8476 40.9442 49.0184 39.115 48.7867H39.1271ZM62.8223 36.4025C63.1393 36.4025 63.4564 36.4025 63.7735 36.4025C64.432 36.4025 64.432 36.4025 64.2552 35.7867C64.0723 35.1403 63.9686 34.4696 64.0418 33.8049C64.2674 31.683 65.3101 30.0854 67.1942 29.0489C70.9381 26.9879 75.6211 29.6647 75.8284 34.0428C75.9686 37.0184 73.6881 39.6647 70.7369 40.061C70.5357 40.0854 70.3284 40.0671 70.2247 40.311C69.8528 41.1586 69.4442 41.994 68.9808 42.7989C68.8528 43.0245 68.932 43.0671 69.1576 43.1037C69.8467 43.2074 70.5418 43.1769 71.2125 43.061C74.6089 42.4635 77.0113 40.5793 78.2613 37.3537C80.4625 31.683 76.2125 25.4208 70.1089 25.3354C64.5784 25.2562 60.371 29.9818 61.1028 35.5489C61.2125 36.4025 61.2247 36.3964 62.0906 36.4025C62.3345 36.4025 62.5723 36.4025 62.8162 36.4025H62.8223ZM26.432 25.8354C26.5174 26.3049 26.5784 26.7806 26.682 27.2501C27.3223 30.1159 28.5601 32.5976 31.1759 34.183C32.8528 35.1952 34.6881 35.7196 36.621 35.9513C36.8406 35.9757 36.9869 35.9879 36.932 35.6891C36.7552 34.6891 36.6089 33.683 36.2796 32.7196C35.5845 30.6525 34.5235 28.8354 32.6759 27.5671C30.871 26.3293 28.8467 25.744 26.7125 25.4574C26.3345 25.4086 26.4442 25.6403 26.4259 25.8354H26.432ZM69.9076 30.5854C67.182 30.6037 65.4198 33.5793 66.7003 35.9818C66.865 36.2867 67.0601 36.433 67.4381 36.4147C68.2369 36.3781 69.0357 36.3964 69.8345 36.4086C70.3893 36.4147 70.9137 36.5915 71.0601 37.1769C71.1942 37.7196 71.4076 37.6159 71.7552 37.4147C73.1515 36.6037 73.8771 34.8903 73.4564 33.3537C73.0052 31.7074 71.554 30.5732 69.9076 30.5854ZM39.1393 35.2257C40.5723 33.7928 41.6271 32.3232 41.6576 30.3232C41.682 28.7867 41.1028 27.433 40.371 26.1281C40.2186 25.8537 40.1089 25.9208 39.9198 26.0915C38.9015 27.0428 38.0784 28.1159 37.5723 29.433C37.4869 29.6525 37.5052 29.8171 37.6028 30.0123C38.3832 31.6159 38.8771 33.311 39.1393 35.2257Z" fill="url(#paint0_linear_36_1279)"/>
<path d="M49.5357 80.4085C46.7613 80.4085 43.993 80.4085 41.2186 80.4085C40.1028 80.4085 39.6089 79.75 39.9869 78.6951C41.3284 74.9268 43.9686 72.6585 47.9077 71.9329C48.2979 71.8597 48.3833 71.7134 48.3833 71.3597C48.3711 68.2683 48.3772 65.1829 48.3833 62.0915C48.3833 61.2561 48.7918 60.7561 49.4564 60.7378C50.1638 60.7256 50.6028 61.1646 50.6089 61.9329C50.6089 64.9085 50.6089 67.8902 50.6089 70.8658C50.6089 71.8232 50.6089 71.8049 51.5357 72.0122C55.2918 72.8536 57.7735 75.1341 59.0479 78.7439C59.4077 79.75 58.8955 80.4024 57.804 80.4085C55.0479 80.4085 52.2979 80.4085 49.5418 80.4085H49.5357ZM42.6821 78.1036C42.7491 78.1402 42.7796 78.1707 42.8101 78.1707C47.2003 78.1707 51.5967 78.1707 55.9869 78.1768C56.3589 78.1768 56.2796 78.0244 56.1577 77.8171C55.6699 76.9695 55.0357 76.2378 54.2491 75.6585C50.304 72.7439 45.1455 73.8293 42.676 78.1036H42.6821Z" fill="url(#paint1_linear_36_1279)"/>
<path d="M49.4806 56.6099C50.1026 56.6099 50.5782 57.0611 50.5965 57.6708C50.6087 58.2989 50.1148 58.8172 49.4928 58.8172C48.9562 58.8172 48.3831 58.2501 48.377 57.7013C48.377 57.1342 48.9013 56.6038 49.4806 56.6038V56.6099Z" fill="url(#paint2_linear_36_1279)"/>
</g>
<defs>
<linearGradient id="paint0_linear_36_1279" x1="52.5786" y1="23.0732" x2="52.5786" y2="54.0297" gradientUnits="userSpaceOnUse">
<stop offset="0.19" stop-color="#F0CB9B"/>
<stop offset="0.575" stop-color="#FFEACE"/>
<stop offset="0.89" stop-color="#C89655"/>
</linearGradient>
<linearGradient id="paint1_linear_36_1279" x1="49.5116" y1="60.7375" x2="49.5116" y2="80.4085" gradientUnits="userSpaceOnUse">
<stop offset="0.19" stop-color="#F0CB9B"/>
<stop offset="0.575" stop-color="#FFEACE"/>
<stop offset="0.89" stop-color="#C89655"/>
</linearGradient>
<linearGradient id="paint2_linear_36_1279" x1="49.4868" y1="56.6038" x2="49.4868" y2="58.8172" gradientUnits="userSpaceOnUse">
<stop offset="0.19" stop-color="#F0CB9B"/>
<stop offset="0.575" stop-color="#FFEACE"/>
<stop offset="0.89" stop-color="#C89655"/>
</linearGradient>
<clipPath id="clip0_36_1279">
<rect width="100" height="100" fill="white" transform="translate(0.5)"/>
</clipPath>
</defs>
</svg>
