<svg width="101" height="100" viewBox="0 0 101 100" fill="none" xmlns="http://www.w3.org/2000/svg">
<g clip-path="url(#clip0_36_1290)">
<path d="M50.5 100C78.1142 100 100.5 77.6142 100.5 50C100.5 22.3858 78.1142 0 50.5 0C22.8858 0 0.5 22.3858 0.5 50C0.5 77.6142 22.8858 100 50.5 100Z" fill="#494949"/>
<path d="M21.4141 33.311C21.7311 32.5 21.9324 31.6402 22.475 30.9146C23.8531 29.0732 25.7128 28.2927 27.9385 28.6463C30.3287 29.0244 32.1153 30.8415 32.5665 33.061C32.7311 33.878 32.7616 34.7012 32.536 35.5061C32.4324 35.8719 32.5482 35.9268 32.8592 35.9024C33.9567 35.811 34.8409 36.2683 35.6702 36.9512C38.8653 39.5854 42.5238 41.1829 46.6214 41.7744C53.1153 42.7134 59.0421 41.3232 64.3226 37.3719C64.9811 36.878 65.5604 36.2683 66.3775 36.0244C66.7189 35.9207 67.0787 35.8537 67.4324 35.9085C67.9141 35.9756 68.0604 35.8841 67.9507 35.3354C67.3531 32.439 69.1397 29.561 71.9811 28.7622C75.1519 27.8719 78.4628 30.0183 78.9811 33.25C79.3165 35.3597 78.6885 37.0854 77.097 38.4817C76.8897 38.6646 76.8348 38.8537 76.8348 39.1158C76.8348 46.0244 76.8409 52.9329 76.8348 59.8354C76.8348 60.1463 76.9141 60.3232 77.2128 60.4756C78.4506 61.1219 79.0726 62.1707 79.0909 63.5671C79.097 64.2622 79.097 64.9573 79.0909 65.6524C79.0848 66.3902 78.6397 66.8597 77.908 66.8597C74.9445 66.8658 71.975 66.8658 69.0116 66.8597C68.408 66.8597 67.8897 66.4695 67.8592 65.9146C67.8104 64.9024 67.7372 63.8841 67.8958 62.8841C68.0726 61.7866 68.7067 60.9634 69.7189 60.4695C69.9933 60.3354 70.0909 60.189 70.0909 59.878C70.0787 53.7439 70.0848 47.6037 70.0787 41.4695C70.0787 41.4512 70.0665 41.4329 70.0421 41.378C68.7311 42.561 67.3165 43.5793 65.8226 44.4878C62.6885 46.3963 59.3104 47.6707 55.7128 48.3658C54.9506 48.5122 54.3287 48.1646 54.2067 47.5488C54.0665 46.8232 54.4689 46.2988 55.2921 46.1402C59.9385 45.25 64.1092 43.3293 67.7921 40.3476C68.1885 40.0305 68.5299 39.6768 68.4628 39.1341C68.3531 38.2195 67.3531 37.8476 66.5787 38.4512C65.8104 39.0549 65.0543 39.6646 64.2372 40.2012C61.1702 42.2195 57.8226 43.4756 54.1945 44.0122C48.3531 44.8719 42.8348 43.9146 37.658 41.061C36.3409 40.3354 35.1336 39.4451 33.975 38.4939C33.2006 37.8597 32.2555 38.1524 32.0543 39.0793C31.9263 39.6707 32.3043 40.0244 32.7067 40.3476C33.9811 41.3719 35.3226 42.2927 36.7494 43.0915C39.4019 44.5732 42.2189 45.5793 45.1946 46.1463C46.0055 46.2988 46.4385 46.8354 46.2982 47.5427C46.1763 48.1585 45.536 48.5183 44.7982 48.378C43.1641 48.061 41.5665 47.628 39.9994 47.0549C36.7433 45.8719 33.786 44.1768 31.1214 41.9695C30.9141 41.7988 30.7128 41.6098 30.5055 41.4268C30.3531 41.5854 30.4263 41.7622 30.4263 41.9146C30.4263 47.8841 30.4263 53.8537 30.4141 59.8232C30.4141 60.1707 30.5177 60.3354 30.8287 60.5C32.0421 61.1402 32.658 62.1768 32.6763 63.5549C32.6885 64.2683 32.6824 64.9817 32.6763 65.6951C32.6702 66.3902 32.2128 66.8719 31.5177 66.8719C28.536 66.8841 25.5482 66.8719 22.5665 66.8841C22.0299 66.8841 21.7616 66.4939 21.4141 66.2012C21.4141 65.0366 21.4141 63.8719 21.4141 62.7073C21.4872 62.5793 21.5848 62.4573 21.6336 62.3232C21.9324 61.4878 22.4872 60.8658 23.2799 60.4939C23.6153 60.3354 23.6763 60.1402 23.6763 59.8049C23.6702 52.939 23.6763 46.0793 23.6763 39.2134C23.6763 38.8902 23.6031 38.6585 23.3409 38.439C22.8287 38.0244 22.4324 37.5 22.1031 36.9268C21.7738 36.3537 21.6763 35.7012 21.4202 35.1098V33.3049L21.4141 33.311ZM72.3226 49.8658C72.3226 52.7378 72.3226 55.6098 72.3226 58.4817C72.3226 59.0061 72.1031 59.689 72.408 60.0061C72.7433 60.3537 73.4385 60.0549 73.975 60.128C74.4872 60.1951 74.5909 60 74.5909 59.5122C74.5726 53.2256 74.5787 46.9329 74.5787 40.6463C74.5787 40.4573 74.5726 40.2683 74.5787 40.0854C74.5909 39.8293 74.5421 39.7317 74.2311 39.7805C73.7921 39.8476 73.3104 39.9146 72.8897 39.811C72.2921 39.6585 72.3104 39.9268 72.3104 40.3598C72.3226 43.5305 72.3165 46.7073 72.3104 49.878L72.3226 49.8658ZM28.1702 49.9207C28.1702 46.6951 28.1702 43.4695 28.1763 40.2378C28.1763 39.8658 28.1519 39.6951 27.6946 39.7927C27.2982 39.878 26.8531 39.9024 26.4689 39.8049C25.9141 39.6646 25.908 39.8963 25.9141 40.3232C25.9263 46.7195 25.9202 53.1158 25.9202 59.5122C25.9202 59.6037 25.9263 59.7012 25.9202 59.7927C25.8958 60.0366 25.9933 60.128 26.2433 60.1158C26.6946 60.1036 27.1458 60.0793 27.5909 60.1219C28.0604 60.1646 28.1885 60.0122 28.1824 59.5427C28.1641 56.3354 28.1702 53.128 28.1702 49.9207ZM73.4567 30.8293C71.6153 30.8293 70.0665 32.3597 70.0665 34.1768C70.0665 36.0793 71.5604 37.5793 73.4446 37.5793C75.3409 37.5793 76.8165 36.0915 76.8287 34.1829C76.8348 32.3537 75.3043 30.8293 73.4567 30.8232V30.8293ZM27.0116 30.8293C25.2189 30.8415 23.6702 32.3841 23.6641 34.1646C23.6641 36.0549 25.158 37.5732 27.0299 37.5793C28.9324 37.5793 30.4385 36.0549 30.4263 34.1463C30.408 32.3354 28.8531 30.8232 27.0116 30.8293ZM73.4263 64.6219C74.2311 64.6219 75.036 64.6219 75.8409 64.6219C76.5319 64.6219 76.8633 64.2703 76.8348 63.5671C76.8043 62.8415 76.3958 62.378 75.7006 62.3658C74.2067 62.3476 72.7067 62.3476 71.2128 62.3658C70.5421 62.378 70.1092 62.8476 70.0787 63.5122C70.0665 63.7561 70.0909 64 70.0787 64.2439C70.0543 64.5427 70.1702 64.628 70.4628 64.6219C71.4567 64.6037 72.4446 64.6158 73.4385 64.6158L73.4263 64.6219ZM27.0482 64.6219C27.8531 64.6219 28.6641 64.6219 29.4689 64.6219C30.1234 64.6219 30.4425 64.2947 30.4263 63.6402C30.408 62.8719 30.0055 62.3841 29.2982 62.3719C27.7982 62.3476 26.2982 62.3537 24.7982 62.3719C24.1336 62.3841 23.7006 62.8598 23.6702 63.5305C23.658 63.7378 23.6885 63.9451 23.6702 64.1463C23.6275 64.5061 23.7494 64.6341 24.1275 64.6219C25.1031 64.5976 26.0787 64.6158 27.0543 64.6158L27.0482 64.6219Z" fill="white"/>
<path d="M30.7621 76.5613C29.8292 75.9698 29.8658 75.36 30.2621 74.5795C33.945 67.2503 37.6097 59.9088 41.2682 52.5673C41.5426 52.0186 41.945 51.7808 42.5609 51.7808C47.6645 51.793 52.7743 51.793 57.878 51.7808C58.5426 51.7808 58.9633 52.0369 59.256 52.6283C62.9206 59.9698 66.5914 67.3052 70.256 74.6405C70.7194 75.5674 70.5975 75.982 69.7316 76.5673H30.7621V76.5613ZM50.2255 74.3113C55.7987 74.3113 61.3719 74.3113 66.9389 74.3113C67.3495 74.3113 67.4654 74.1304 67.2865 73.7686C64.0792 67.3417 60.8658 60.9149 57.6645 54.482C57.4999 54.1527 57.317 54.0247 56.945 54.0308C52.4633 54.043 47.9755 54.043 43.4938 54.0308C43.1645 54.0308 42.9999 54.1405 42.8536 54.4271C39.6462 60.8661 36.4328 67.2991 33.2194 73.732C32.9328 74.3052 32.9389 74.3113 33.5609 74.3113C39.1158 74.3113 44.6645 74.3113 50.2194 74.3113H50.2255Z" fill="white"/>
<path d="M60.3902 27.0245C60.3841 27.6647 60.1767 28.2379 59.7438 28.7135C59.0731 29.4452 58.4267 30.2135 57.695 30.8782C57.0914 31.4269 56.9755 32.0062 57.1219 32.7623C57.2987 33.6586 57.4206 34.5672 57.5304 35.4757C57.7743 37.4391 55.7194 39.0123 53.8719 38.244C52.7682 37.7867 51.695 37.244 50.6219 36.7135C50.3231 36.5672 50.0792 36.5733 49.7804 36.7257C48.8292 37.2074 47.8658 37.6708 46.9024 38.1343C45.8841 38.6221 44.8902 38.5611 43.9938 37.866C43.128 37.1891 42.817 36.2806 43.006 35.1769C43.195 34.055 43.2987 32.9208 43.4572 31.7867C43.4938 31.5306 43.3231 31.4147 43.1889 31.2684C42.4389 30.4818 41.6828 29.6952 40.9267 28.9147C40.1402 28.0977 39.8963 27.1343 40.2682 26.0733C40.6219 25.0733 41.4085 24.5184 42.4328 24.3172C43.5121 24.1099 44.5914 23.9208 45.6767 23.7318C45.9755 23.6769 46.1706 23.5428 46.3109 23.2562C46.7865 22.3233 47.2865 21.3964 47.7804 20.4757C48.2926 19.5123 49.0731 18.9208 50.1889 18.9086C51.3292 18.8964 52.1463 19.4574 52.6828 20.4391C53.2072 21.3903 53.7255 22.3477 54.2377 23.305C54.378 23.5733 54.5426 23.7135 54.8719 23.7623C55.9633 23.9208 57.0487 24.116 58.128 24.3294C59.4755 24.5916 60.3841 25.6952 60.3841 27.0245H60.3902ZM45.2194 35.7928C45.2194 36.116 45.5304 36.2745 46.0243 36.0367C47.1707 35.4879 48.3231 34.9391 49.4572 34.366C49.9694 34.1038 50.4328 34.1038 50.945 34.3599C52.0853 34.9269 53.2438 35.4574 54.3902 36.0062C54.6097 36.1099 54.8414 36.2501 55.0792 36.0977C55.3292 35.9391 55.2621 35.6891 55.2255 35.4391C55.0548 34.2196 54.9572 32.9879 54.7255 31.7806C54.5975 31.116 54.7926 30.6647 55.2255 30.2196C56.1219 29.2867 57.0182 28.3538 57.8963 27.4025C58.2987 26.9696 58.195 26.6586 57.6158 26.555C56.5365 26.3538 55.4511 26.1343 54.3658 25.994C53.4206 25.8721 52.7499 25.5062 52.3414 24.5794C51.9145 23.6038 51.3414 22.6952 50.8231 21.7623C50.6828 21.5123 50.6219 21.1525 50.2316 21.1708C49.8902 21.1891 49.8109 21.5062 49.6828 21.7501C49.0914 22.8538 48.4938 23.9574 47.9085 25.0733C47.6889 25.4818 47.3841 25.7135 46.9146 25.7989C45.5914 26.0306 44.2743 26.305 42.9511 26.5489C42.7133 26.5916 42.506 26.6343 42.4024 26.8721C42.2926 27.1343 42.4877 27.2928 42.6402 27.4513C43.5182 28.3721 44.3963 29.305 45.2926 30.2074C45.6706 30.5855 45.8292 30.994 45.7621 31.5184C45.5792 32.9086 45.4085 34.2989 45.2194 35.805V35.7928Z" fill="white"/>
<path d="M50.2372 48.8537C49.5786 48.8537 49.1091 48.3659 49.1213 47.7013C49.1335 47.122 49.6762 46.5976 50.2555 46.6098C50.8591 46.6281 51.3652 47.1342 51.3713 47.7257C51.3713 48.3781 50.8957 48.8598 50.2372 48.8537Z" fill="white"/>
<g clip-path="url(#clip1_36_1290)">
<path d="M50.5 100C78.1142 100 100.5 77.6142 100.5 50C100.5 22.3858 78.1142 0 50.5 0C22.8858 0 0.5 22.3858 0.5 50C0.5 77.6142 22.8858 100 50.5 100Z" fill="#494949"/>
<path d="M49.3524 81.2674C48.4621 80.9991 47.5658 80.7735 46.7548 80.2918C44.3097 78.8405 43.0963 76.0662 43.4073 73.5722C43.8097 70.3588 46.0841 68.1759 48.8768 67.5783C50.9073 67.1454 52.7914 67.6088 54.45 68.8954C54.5536 68.9747 54.6695 69.0479 54.7914 69.1271C54.9865 68.9503 54.8829 68.7247 54.8829 68.5357C54.889 61.0052 54.889 53.4808 54.889 45.9503C54.889 44.9198 55.078 44.6332 56.0536 44.3101C62.7548 42.0723 69.4621 39.8405 76.1634 37.6149C77.2487 37.2552 77.9317 37.7491 77.9317 38.8954C77.9317 47.6149 77.9317 56.3344 77.9317 65.0479C77.9317 69.1149 74.6512 72.2186 70.578 72.0296C67.4621 71.8893 64.7 69.2918 64.2 66.2186C63.6207 62.6515 65.9926 59.1759 69.4743 58.3893C71.5414 57.9259 73.4195 58.3588 75.1207 59.6088C75.2304 59.6881 75.3341 59.7735 75.4378 59.8527C75.4682 59.871 75.5048 59.8771 75.5475 59.8893C75.7121 59.7796 75.6207 59.6088 75.6268 59.4747C75.6329 56.4808 75.6268 53.4808 75.6451 50.4869C75.6451 50.0113 75.5536 49.9503 75.1024 50.1027C69.3158 52.0479 63.5231 53.9747 57.7243 55.8893C57.3036 56.0296 57.1817 56.1942 57.1817 56.6332C57.1999 62.5113 57.1939 68.3832 57.1939 74.2613C57.1939 77.7308 54.7975 80.5662 51.389 81.1515C51.3219 81.1637 51.267 81.2186 51.2061 81.2552H49.3646L49.3524 81.2674ZM75.6329 40.2369C75.3951 40.3101 75.2182 40.3649 75.0353 40.4259C72.9134 41.1332 70.7914 41.8405 68.6695 42.5479C64.9865 43.7735 61.3097 44.9991 57.6268 46.2247C57.389 46.304 57.1756 46.3466 57.1817 46.6942C57.1999 48.8832 57.1939 51.0723 57.1817 53.2613C57.1817 53.5844 57.2548 53.6393 57.578 53.5296C63.4439 51.5662 69.3158 49.6088 75.1878 47.6698C75.517 47.5601 75.639 47.4259 75.6329 47.0723C75.6085 45.9198 75.6268 44.7674 75.6268 43.6149C75.6268 42.5052 75.6268 41.3954 75.6268 40.2369H75.6329ZM71.0231 60.5235C68.5109 60.5113 66.4134 62.6149 66.4073 65.1393C66.4012 67.6149 68.4804 69.7064 70.9804 69.743C73.4804 69.7796 75.6146 67.6698 75.6268 65.1454C75.6451 62.6271 73.5536 60.5296 71.0231 60.5174V60.5235ZM50.2609 69.743C47.7426 69.7491 45.5963 71.8588 45.6756 74.3771C45.7548 77.0235 47.6634 78.9686 50.3097 78.9381C52.9804 78.9076 54.8585 76.9442 54.8585 74.3527C54.8585 71.6576 52.8524 69.8405 50.2609 69.743Z" fill="url(#paint0_linear_36_1290)"/>
<path d="M18.9324 53.4928C19.2982 52.2428 19.7189 51.0233 20.6092 50.0233C23.1092 47.2062 27.0726 46.8099 30.0665 49.1087C30.158 49.1757 30.2555 49.2367 30.3592 49.3099C30.5604 49.1392 30.4506 48.9135 30.4506 48.7245C30.4567 40.4257 30.4567 32.127 30.4567 23.8343C30.4567 23.6636 30.4445 23.4867 30.4628 23.316C30.5238 22.8038 30.8287 22.4684 31.2982 22.3221C31.7677 22.1757 32.1824 22.3343 32.4811 22.7062C32.6824 22.9562 32.8531 23.2428 33.0055 23.5294C34.1824 25.7611 35.9385 27.3343 38.2677 28.2855C39.8592 28.9379 41.3287 29.7916 42.5543 31.0172C44.2067 32.6696 45.0421 34.6879 45.3165 36.9928C45.536 38.7855 45.3592 40.5111 44.6153 42.1574C43.9385 43.6635 42.8836 44.8587 41.5482 45.816C41.1458 46.1026 40.7189 46.2245 40.2616 45.9684C39.8165 45.7184 39.6336 45.3282 39.658 44.816C39.7738 42.127 38.908 39.8404 36.8592 38.0538C35.8165 37.1392 34.6031 36.5721 33.2433 36.2672C32.7677 36.1575 32.7433 36.3099 32.7433 36.694C32.7494 40.0721 32.7433 43.4562 32.7433 46.8343C32.7433 49.4257 32.6641 52.0233 32.7677 54.6148C32.8775 57.3465 30.5787 60.2916 27.9506 61.1026C23.9446 62.3404 19.8836 59.9379 19.036 55.816C19.0116 55.694 19.0543 55.5416 18.9141 55.4562V53.4989L18.9324 53.4928ZM25.8165 59.1392C28.2799 59.1818 30.4506 57.1148 30.4506 54.6026C30.4506 51.9745 28.5726 50.0111 25.8592 49.9318C23.3775 49.8648 21.2494 51.9562 21.2616 54.4806C21.2738 57.0111 23.0848 59.0111 25.8226 59.1392H25.8165ZM41.8348 42.3404C42.597 41.3099 42.9445 40.3038 43.0482 39.194C43.3775 35.6026 41.9689 32.8831 39.1275 31.255C37.7677 30.4745 36.2433 30.005 34.9446 29.1026C34.1946 28.5843 33.5177 27.9867 32.8348 27.3221C32.7982 27.4318 32.7677 27.4867 32.7677 27.5355C32.7677 29.5111 32.7677 31.4867 32.7616 33.4684C32.7616 33.7916 32.8775 33.8709 33.1824 33.9196C36.3836 34.4684 38.8531 36.1087 40.536 38.9075C41.1519 39.9318 41.5543 41.0294 41.8409 42.3465L41.8348 42.3404Z" fill="url(#paint1_linear_36_1290)"/>
<path d="M72.0919 43.9014C72.7504 43.9014 73.1894 44.2672 73.3114 44.8343C73.409 45.3221 73.1407 45.8587 72.5858 46.066C71.5858 46.444 70.5736 46.7733 69.5614 47.1148C68.2199 47.5599 66.8785 47.9989 65.537 48.4318C64.7748 48.6818 64.1346 48.4318 63.9151 47.8038C63.6894 47.1636 64.0065 46.5416 64.7626 46.2794C67.0614 45.4989 69.3602 44.7367 71.6651 43.9745C71.8236 43.9197 72.0004 43.9136 72.098 43.8953L72.0919 43.9014Z" fill="url(#paint2_linear_36_1290)"/>
<path d="M61.7992 49.0294C61.7809 49.6148 61.2078 50.1575 60.6163 50.1453C60.0309 50.127 59.4822 49.5477 59.5004 48.9624C59.5248 48.3587 60.0919 47.8282 60.6773 47.8526C61.2748 47.877 61.8114 48.4441 61.7931 49.0294H61.7992Z" fill="url(#paint3_linear_36_1290)"/>
</g>
</g>
<defs>
<linearGradient id="paint0_linear_36_1290" x1="60.6455" y1="37.4993" x2="60.6455" y2="81.2674" gradientUnits="userSpaceOnUse">
<stop offset="0.19" stop-color="#F0CB9B"/>
<stop offset="0.575" stop-color="#FFEACE"/>
<stop offset="0.89" stop-color="#C89655"/>
</linearGradient>
<linearGradient id="paint1_linear_36_1290" x1="32.1592" y1="22.2681" x2="32.1592" y2="61.4284" gradientUnits="userSpaceOnUse">
<stop offset="0.19" stop-color="#F0CB9B"/>
<stop offset="0.575" stop-color="#FFEACE"/>
<stop offset="0.89" stop-color="#C89655"/>
</linearGradient>
<linearGradient id="paint2_linear_36_1290" x1="68.5874" y1="43.8953" x2="68.5874" y2="48.5276" gradientUnits="userSpaceOnUse">
<stop offset="0.19" stop-color="#F0CB9B"/>
<stop offset="0.575" stop-color="#FFEACE"/>
<stop offset="0.89" stop-color="#C89655"/>
</linearGradient>
<linearGradient id="paint3_linear_36_1290" x1="60.6496" y1="47.8518" x2="60.6496" y2="50.1455" gradientUnits="userSpaceOnUse">
<stop offset="0.19" stop-color="#F0CB9B"/>
<stop offset="0.575" stop-color="#FFEACE"/>
<stop offset="0.89" stop-color="#C89655"/>
</linearGradient>
<clipPath id="clip0_36_1290">
<rect width="100" height="100" fill="white" transform="translate(0.5)"/>
</clipPath>
<clipPath id="clip1_36_1290">
<rect width="100" height="100" fill="white" transform="translate(0.5)"/>
</clipPath>
</defs>
</svg>
