<svg width="101" height="100" viewBox="0 0 101 100" fill="none" xmlns="http://www.w3.org/2000/svg">
<g clip-path="url(#clip0_36_1310)">
<path d="M50.5 100C78.1142 100 100.5 77.6142 100.5 50C100.5 22.3858 78.1142 0 50.5 0C22.8858 0 0.5 22.3858 0.5 50C0.5 77.6142 22.8858 100 50.5 100Z" fill="#494949"/>
<path d="M80.9875 44.2795C80.2253 45.4502 79.2131 46.4136 78.2985 47.4502C71.7192 54.8953 65.1156 62.3221 58.5241 69.7612C56.4875 72.0538 54.4571 74.3526 52.4205 76.6453C51.701 77.4502 50.9936 77.4563 50.2741 76.6453C44.5546 70.1941 38.8351 63.7368 33.1156 57.2856C29.4692 53.1697 25.8168 49.0599 22.1705 44.9441C21.5485 44.2368 21.5363 43.8221 22.0546 43.0355C25.0973 38.3953 28.1461 33.7551 31.1705 29.1026C31.5851 28.4685 32.079 28.188 32.829 28.188C45.1827 28.2002 57.5302 28.2002 69.8839 28.188C70.6034 28.188 71.1095 28.4197 71.5119 29.0477C74.6583 33.9014 77.8229 38.7368 80.9875 43.5721V44.2673V44.2795ZM51.3229 71.4624C51.4144 71.2612 51.4509 71.2002 51.4692 71.1331C52.39 68.0112 53.3107 64.8892 54.2375 61.7673C54.8046 59.8587 55.39 57.9502 55.957 56.0416C56.1278 55.4685 56.4571 55.0904 57.0851 55.0538C58.0424 55.0051 58.5729 55.8038 58.2619 56.8526C57.1034 60.7551 55.9327 64.6514 54.768 68.5538C54.5241 69.3648 54.2924 70.1758 54.0607 70.9868C54.0912 70.999 54.1278 71.0112 54.1583 71.0234C61.768 62.4441 69.3717 53.8648 77.0668 45.188C71.9753 45.188 67.0546 45.188 62.1339 45.1819C61.7924 45.1819 61.6766 45.3038 61.5912 45.6148C61.2375 46.8709 60.8656 48.1209 60.4753 49.3648C60.2497 50.0843 59.5851 50.4441 58.9449 50.2368C58.2863 50.0234 57.9631 49.3892 58.1644 48.6697C58.4327 47.688 58.6949 46.7063 59.018 45.7429C59.1644 45.3038 59.1217 45.1758 58.6339 45.1819C53.768 45.1941 48.9083 45.1941 44.0424 45.1819C43.5424 45.1819 43.5241 45.3282 43.6583 45.7551C44.1217 47.1941 44.5302 48.6514 44.9631 50.1026C47.0668 57.1758 49.1705 64.2429 51.3229 71.4624ZM48.6156 71.1331C48.6949 70.8038 48.518 70.5965 48.451 70.3709C46.018 62.1697 43.579 53.9685 41.1522 45.7673C41.018 45.3099 40.8168 45.1819 40.3534 45.1819C35.8351 45.2002 31.3229 45.188 26.8046 45.2002C26.457 45.2002 25.957 44.9929 25.7985 45.3099C25.6949 45.5234 26.1827 45.816 26.4083 46.0721C33.2375 53.7856 40.0729 61.499 46.9022 69.2063C47.4631 69.8343 48.018 70.4685 48.6095 71.127L48.6156 71.1331ZM67.9936 30.7307C67.9022 30.6758 67.8717 30.6392 67.8412 30.6392C63.2497 30.6392 58.6583 30.6392 54.0668 30.6331C53.6644 30.6331 53.6339 30.7429 53.8351 31.0416C56.0851 34.4746 58.3351 37.9075 60.5729 41.3526C60.8168 41.7246 60.9022 41.6209 61.0973 41.316C62.8656 38.5782 64.6461 35.8587 66.4266 33.127C66.9449 32.3282 67.4692 31.5295 67.9936 30.7246V30.7307ZM70.3168 42.7612C72.5363 42.7612 74.7497 42.7612 76.9692 42.7612C77.1156 42.7612 77.3046 42.8465 77.4022 42.7063C77.5119 42.5416 77.3168 42.4319 77.2375 42.3099C75.0119 38.8892 72.7802 35.4685 70.5607 32.0416C70.3351 31.688 70.2314 31.7368 70.0241 32.0599C67.8229 35.4502 65.6095 38.8404 63.4083 42.2307C63.3168 42.3709 63.1095 42.5112 63.201 42.6758C63.3046 42.8587 63.5485 42.7612 63.7314 42.7612C65.9266 42.7673 68.1278 42.7612 70.3229 42.7612H70.3168ZM44.1278 42.7246C44.3107 42.7429 44.3778 42.7612 44.451 42.7612C48.9997 42.7612 53.5546 42.7612 58.1034 42.7612C58.2131 42.7612 58.3839 42.7673 58.4266 42.7063C58.5485 42.5173 58.3412 42.3953 58.2558 42.2612C56.0607 38.8831 53.8534 35.5173 51.6644 32.1392C51.4083 31.7429 51.2802 31.7124 51.018 32.1331C49.8473 33.9685 48.6461 35.7856 47.4571 37.6087C46.3656 39.2856 45.2741 40.9624 44.1278 42.7246ZM32.3961 42.7612C34.6156 42.7612 36.829 42.7612 39.0485 42.7612C39.207 42.7612 39.4327 42.8465 39.5119 42.6453C39.5729 42.499 39.4022 42.3709 39.3229 42.249C37.1156 38.8587 34.9022 35.4746 32.701 32.0782C32.5119 31.7856 32.4083 31.6697 32.1644 32.0477C29.957 35.4563 27.7253 38.8587 25.5119 42.2673C25.4327 42.3892 25.2619 42.5173 25.3351 42.6636C25.4266 42.8526 25.6461 42.7612 25.8046 42.7612C27.9997 42.7673 30.201 42.7612 32.4022 42.7612H32.3961ZM49.0973 30.6331C44.3961 30.6331 39.8473 30.6331 35.2924 30.6331C34.707 30.6331 34.6888 30.6758 35.0302 31.2002C37.2131 34.5599 39.4083 37.9136 41.5912 41.2795C41.8229 41.6331 41.9327 41.627 42.1644 41.2734C43.7436 38.8282 45.3412 36.4014 46.9266 33.9624C47.6278 32.8892 48.329 31.8099 49.0973 30.6331Z" fill="url(#paint0_linear_36_1310)"/>
<path d="M59.4385 52.688C59.4263 53.3465 58.8714 53.8892 58.2068 53.8831C57.5605 53.877 57.0056 53.3038 57.0178 52.6514C57.0239 51.9929 57.5909 51.4502 58.2434 51.4624C58.908 51.4746 59.4507 52.0355 59.4385 52.688Z" fill="url(#paint1_linear_36_1310)"/>
</g>
<defs>
<linearGradient id="paint0_linear_36_1310" x1="51.3356" y1="28.188" x2="51.3356" y2="77.2513" gradientUnits="userSpaceOnUse">
<stop offset="0.19" stop-color="#F0CB9B"/>
<stop offset="0.575" stop-color="#FFEACE"/>
<stop offset="0.89" stop-color="#C89655"/>
</linearGradient>
<linearGradient id="paint1_linear_36_1310" x1="58.2281" y1="51.4622" x2="58.2281" y2="53.8831" gradientUnits="userSpaceOnUse">
<stop offset="0.19" stop-color="#F0CB9B"/>
<stop offset="0.575" stop-color="#FFEACE"/>
<stop offset="0.89" stop-color="#C89655"/>
</linearGradient>
<clipPath id="clip0_36_1310">
<rect width="100" height="100" fill="white" transform="translate(0.5)"/>
</clipPath>
</defs>
</svg>
