<svg width="101" height="100" viewBox="0 0 101 100" fill="none" xmlns="http://www.w3.org/2000/svg">
<g clip-path="url(#clip0_36_1320)">
<path d="M50.5 100C78.1142 100 100.5 77.6142 100.5 50C100.5 22.3858 78.1142 0 50.5 0C22.8858 0 0.5 22.3858 0.5 50C0.5 77.6142 22.8858 100 50.5 100Z" fill="#2B2B2B"/>
<path d="M21.4141 33.311C21.7311 32.5 21.9324 31.6402 22.475 30.9146C23.8531 29.0732 25.7128 28.2927 27.9385 28.6463C30.3287 29.0244 32.1153 30.8415 32.5665 33.061C32.7311 33.878 32.7616 34.7012 32.536 35.5061C32.4324 35.8719 32.5482 35.9268 32.8592 35.9024C33.9567 35.811 34.8409 36.2683 35.6702 36.9512C38.8653 39.5854 42.5238 41.1829 46.6214 41.7744C53.1153 42.7134 59.0421 41.3232 64.3226 37.3719C64.9811 36.878 65.5604 36.2683 66.3775 36.0244C66.7189 35.9207 67.0787 35.8537 67.4324 35.9085C67.9141 35.9756 68.0604 35.8841 67.9507 35.3354C67.3531 32.439 69.1397 29.561 71.9811 28.7622C75.1519 27.8719 78.4628 30.0183 78.9811 33.25C79.3165 35.3597 78.6885 37.0854 77.097 38.4817C76.8897 38.6646 76.8348 38.8537 76.8348 39.1158C76.8348 46.0244 76.8409 52.9329 76.8348 59.8354C76.8348 60.1463 76.9141 60.3232 77.2128 60.4756C78.4506 61.1219 79.0726 62.1707 79.0909 63.5671C79.097 64.2622 79.097 64.9573 79.0909 65.6524C79.0848 66.3902 78.6397 66.8597 77.908 66.8597C74.9445 66.8658 71.975 66.8658 69.0116 66.8597C68.408 66.8597 67.8897 66.4695 67.8592 65.9146C67.8104 64.9024 67.7372 63.8841 67.8958 62.8841C68.0726 61.7866 68.7067 60.9634 69.7189 60.4695C69.9933 60.3354 70.0909 60.189 70.0909 59.878C70.0787 53.7439 70.0848 47.6037 70.0787 41.4695C70.0787 41.4512 70.0665 41.4329 70.0421 41.378C68.7311 42.561 67.3165 43.5793 65.8226 44.4878C62.6885 46.3963 59.3104 47.6707 55.7128 48.3658C54.9506 48.5122 54.3287 48.1646 54.2067 47.5488C54.0665 46.8232 54.4689 46.2988 55.2921 46.1402C59.9385 45.25 64.1092 43.3293 67.7921 40.3476C68.1885 40.0305 68.5299 39.6768 68.4628 39.1341C68.3531 38.2195 67.3531 37.8476 66.5787 38.4512C65.8104 39.0549 65.0543 39.6646 64.2372 40.2012C61.1702 42.2195 57.8226 43.4756 54.1945 44.0122C48.3531 44.8719 42.8348 43.9146 37.658 41.061C36.3409 40.3354 35.1336 39.4451 33.975 38.4939C33.2006 37.8597 32.2555 38.1524 32.0543 39.0793C31.9263 39.6707 32.3043 40.0244 32.7067 40.3476C33.9811 41.3719 35.3226 42.2927 36.7494 43.0915C39.4019 44.5732 42.2189 45.5793 45.1946 46.1463C46.0055 46.2988 46.4385 46.8354 46.2982 47.5427C46.1763 48.1585 45.536 48.5183 44.7982 48.378C43.1641 48.061 41.5665 47.628 39.9994 47.0549C36.7433 45.8719 33.786 44.1768 31.1214 41.9695C30.9141 41.7988 30.7128 41.6098 30.5055 41.4268C30.3531 41.5854 30.4263 41.7622 30.4263 41.9146C30.4263 47.8841 30.4263 53.8537 30.4141 59.8232C30.4141 60.1707 30.5177 60.3354 30.8287 60.5C32.0421 61.1402 32.658 62.1768 32.6763 63.5549C32.6885 64.2683 32.6824 64.9817 32.6763 65.6951C32.6702 66.3902 32.2128 66.8719 31.5177 66.8719C28.536 66.8841 25.5482 66.8719 22.5665 66.8841C22.0299 66.8841 21.7616 66.4939 21.4141 66.2012C21.4141 65.0366 21.4141 63.8719 21.4141 62.7073C21.4872 62.5793 21.5848 62.4573 21.6336 62.3232C21.9324 61.4878 22.4872 60.8658 23.2799 60.4939C23.6153 60.3354 23.6763 60.1402 23.6763 59.8049C23.6702 52.939 23.6763 46.0793 23.6763 39.2134C23.6763 38.8902 23.6031 38.6585 23.3409 38.439C22.8287 38.0244 22.4324 37.5 22.1031 36.9268C21.7738 36.3537 21.6763 35.7012 21.4202 35.1098V33.3049L21.4141 33.311ZM72.3226 49.8658C72.3226 52.7378 72.3226 55.6098 72.3226 58.4817C72.3226 59.0061 72.1031 59.689 72.408 60.0061C72.7433 60.3537 73.4385 60.0549 73.975 60.128C74.4872 60.1951 74.5909 60 74.5909 59.5122C74.5726 53.2256 74.5787 46.9329 74.5787 40.6463C74.5787 40.4573 74.5726 40.2683 74.5787 40.0854C74.5909 39.8293 74.5421 39.7317 74.2311 39.7805C73.7921 39.8476 73.3104 39.9146 72.8897 39.811C72.2921 39.6585 72.3104 39.9268 72.3104 40.3598C72.3226 43.5305 72.3165 46.7073 72.3104 49.878L72.3226 49.8658ZM28.1702 49.9207C28.1702 46.6951 28.1702 43.4695 28.1763 40.2378C28.1763 39.8658 28.1519 39.6951 27.6946 39.7927C27.2982 39.878 26.8531 39.9024 26.4689 39.8049C25.9141 39.6646 25.908 39.8963 25.9141 40.3232C25.9263 46.7195 25.9202 53.1158 25.9202 59.5122C25.9202 59.6037 25.9263 59.7012 25.9202 59.7927C25.8958 60.0366 25.9933 60.128 26.2433 60.1158C26.6946 60.1036 27.1458 60.0793 27.5909 60.1219C28.0604 60.1646 28.1885 60.0122 28.1824 59.5427C28.1641 56.3354 28.1702 53.128 28.1702 49.9207ZM73.4567 30.8293C71.6153 30.8293 70.0665 32.3597 70.0665 34.1768C70.0665 36.0793 71.5604 37.5793 73.4446 37.5793C75.3409 37.5793 76.8165 36.0915 76.8287 34.1829C76.8348 32.3537 75.3043 30.8293 73.4567 30.8232V30.8293ZM27.0116 30.8293C25.2189 30.8415 23.6702 32.3841 23.6641 34.1646C23.6641 36.0549 25.158 37.5732 27.0299 37.5793C28.9324 37.5793 30.4385 36.0549 30.4263 34.1463C30.408 32.3354 28.8531 30.8232 27.0116 30.8293ZM73.4263 64.6219C74.2311 64.6219 75.036 64.6219 75.8409 64.6219C76.5319 64.6219 76.8633 64.2703 76.8348 63.5671C76.8043 62.8415 76.3958 62.378 75.7006 62.3658C74.2067 62.3476 72.7067 62.3476 71.2128 62.3658C70.5421 62.378 70.1092 62.8476 70.0787 63.5122C70.0665 63.7561 70.0909 64 70.0787 64.2439C70.0543 64.5427 70.1702 64.628 70.4628 64.6219C71.4567 64.6037 72.4446 64.6158 73.4385 64.6158L73.4263 64.6219ZM27.0482 64.6219C27.8531 64.6219 28.6641 64.6219 29.4689 64.6219C30.1234 64.6219 30.4425 64.2947 30.4263 63.6402C30.408 62.8719 30.0055 62.3841 29.2982 62.3719C27.7982 62.3476 26.2982 62.3537 24.7982 62.3719C24.1336 62.3841 23.7006 62.8598 23.6702 63.5305C23.658 63.7378 23.6885 63.9451 23.6702 64.1463C23.6275 64.5061 23.7494 64.6341 24.1275 64.6219C25.1031 64.5976 26.0787 64.6158 27.0543 64.6158L27.0482 64.6219Z" fill="white"/>
<path d="M30.7621 76.561C29.8292 75.9695 29.8658 75.3598 30.2621 74.5793C33.945 67.25 37.6097 59.9086 41.2682 52.5671C41.5426 52.0183 41.945 51.7805 42.5609 51.7805C47.6645 51.7927 52.7743 51.7927 57.878 51.7805C58.5426 51.7805 58.9633 52.0366 59.256 52.6281C62.9206 59.9695 66.5914 67.3049 70.256 74.6403C70.7194 75.5671 70.5975 75.9817 69.7316 76.5671H30.7621V76.561ZM50.2255 74.311C55.7987 74.311 61.3719 74.311 66.9389 74.311C67.3495 74.311 67.4654 74.1301 67.2865 73.7683C64.0792 67.3415 60.8658 60.9147 57.6645 54.4817C57.4999 54.1525 57.317 54.0244 56.945 54.0305C52.4633 54.0427 47.9755 54.0427 43.4938 54.0305C43.1645 54.0305 42.9999 54.1403 42.8536 54.4269C39.6462 60.8659 36.4328 67.2988 33.2194 73.7317C32.9328 74.3049 32.9389 74.311 33.5609 74.311C39.1158 74.311 44.6645 74.311 50.2194 74.311H50.2255Z" fill="white"/>
<path d="M60.3902 27.0245C60.3841 27.6647 60.1767 28.2379 59.7438 28.7135C59.0731 29.4452 58.4267 30.2135 57.695 30.8782C57.0914 31.4269 56.9755 32.0062 57.1219 32.7623C57.2987 33.6586 57.4206 34.5672 57.5304 35.4757C57.7743 37.4391 55.7194 39.0123 53.8719 38.244C52.7682 37.7867 51.695 37.244 50.6219 36.7135C50.3231 36.5672 50.0792 36.5733 49.7804 36.7257C48.8292 37.2074 47.8658 37.6708 46.9024 38.1343C45.8841 38.6221 44.8902 38.5611 43.9938 37.866C43.128 37.1891 42.817 36.2806 43.006 35.1769C43.195 34.055 43.2987 32.9208 43.4572 31.7867C43.4938 31.5306 43.3231 31.4147 43.1889 31.2684C42.4389 30.4818 41.6828 29.6952 40.9267 28.9147C40.1402 28.0977 39.8963 27.1343 40.2682 26.0733C40.6219 25.0733 41.4085 24.5184 42.4328 24.3172C43.5121 24.1099 44.5914 23.9208 45.6767 23.7318C45.9755 23.6769 46.1706 23.5428 46.3109 23.2562C46.7865 22.3233 47.2865 21.3964 47.7804 20.4757C48.2926 19.5123 49.0731 18.9208 50.1889 18.9086C51.3292 18.8964 52.1463 19.4574 52.6828 20.4391C53.2072 21.3903 53.7255 22.3477 54.2377 23.305C54.378 23.5733 54.5426 23.7135 54.8719 23.7623C55.9633 23.9208 57.0487 24.116 58.128 24.3294C59.4755 24.5916 60.3841 25.6952 60.3841 27.0245H60.3902ZM45.2194 35.7928C45.2194 36.116 45.5304 36.2745 46.0243 36.0367C47.1707 35.4879 48.3231 34.9391 49.4572 34.366C49.9694 34.1038 50.4328 34.1038 50.945 34.3599C52.0853 34.9269 53.2438 35.4574 54.3902 36.0062C54.6097 36.1099 54.8414 36.2501 55.0792 36.0977C55.3292 35.9391 55.2621 35.6891 55.2255 35.4391C55.0548 34.2196 54.9572 32.9879 54.7255 31.7806C54.5975 31.116 54.7926 30.6647 55.2255 30.2196C56.1219 29.2867 57.0182 28.3538 57.8963 27.4025C58.2987 26.9696 58.195 26.6586 57.6158 26.555C56.5365 26.3538 55.4511 26.1343 54.3658 25.994C53.4206 25.8721 52.7499 25.5062 52.3414 24.5794C51.9145 23.6038 51.3414 22.6952 50.8231 21.7623C50.6828 21.5123 50.6219 21.1525 50.2316 21.1708C49.8902 21.1891 49.8109 21.5062 49.6828 21.7501C49.0914 22.8538 48.4938 23.9574 47.9085 25.0733C47.6889 25.4818 47.3841 25.7135 46.9146 25.7989C45.5914 26.0306 44.2743 26.305 42.9511 26.5489C42.7133 26.5916 42.506 26.6343 42.4024 26.8721C42.2926 27.1343 42.4877 27.2928 42.6402 27.4513C43.5182 28.3721 44.3963 29.305 45.2926 30.2074C45.6706 30.5855 45.8292 30.994 45.7621 31.5184C45.5792 32.9086 45.4085 34.2989 45.2194 35.805V35.7928Z" fill="white"/>
<path d="M50.2372 48.8537C49.5786 48.8537 49.1091 48.3659 49.1213 47.7013C49.1335 47.122 49.6762 46.5976 50.2555 46.6098C50.8591 46.6281 51.3652 47.1342 51.3713 47.7257C51.3713 48.3781 50.8957 48.8598 50.2372 48.8537Z" fill="white"/>
<g clip-path="url(#clip1_36_1320)">
<path d="M50.5 100C78.1142 100 100.5 77.6142 100.5 50C100.5 22.3858 78.1142 0 50.5 0C22.8858 0 0.5 22.3858 0.5 50C0.5 77.6142 22.8858 100 50.5 100Z" fill="#494949"/>
<path d="M66.1464 70.6834C65.9879 69.6285 65.8294 68.5736 65.6647 67.5187C65.2745 65.0431 64.8782 62.5675 64.4818 60.098C64.2318 58.5431 63.9818 56.9821 63.7318 55.4273C63.5733 54.4273 63.8172 53.5736 64.5611 52.8358C68.055 49.3663 71.5245 45.8846 75.0001 42.3968C75.1647 42.2321 75.4879 42.0797 75.4147 41.8602C75.3477 41.6651 75.0001 41.7199 74.7684 41.6834C70.9025 41.0614 67.0367 40.4395 63.1647 39.8175C62.1769 39.659 61.1891 39.4821 60.1952 39.3541C59.183 39.2199 58.4879 38.6834 58.0367 37.7931C55.8233 33.4455 53.6099 29.1041 51.4025 24.7626C51.2806 24.5187 51.1464 24.2748 51.0062 24.0187C50.7623 24.159 50.7135 24.3846 50.616 24.5736C48.4147 28.8785 46.1891 33.1773 44.0306 37.5065C43.4452 38.6834 42.5794 39.2565 41.3233 39.4516C37.0977 40.098 32.8843 40.7809 28.6647 41.4455C27.9208 41.5614 27.1708 41.6773 26.3111 41.8114C27.494 42.9943 28.5977 44.0919 29.7013 45.1894C32.1099 47.6041 34.4757 50.0614 36.9513 52.409C38.1221 53.5126 38.3172 54.7077 38.055 56.1894C37.5672 58.8907 37.1708 61.6102 36.744 64.3175C36.433 66.2931 36.1282 68.2748 35.8233 70.2565C35.805 70.3785 35.6769 70.5187 35.7928 70.6224C35.9391 70.7565 36.0733 70.5858 36.1891 70.5309C39.0123 69.098 41.8294 67.659 44.6464 66.226C45.6952 65.6955 46.6221 66.0797 46.8538 67.1407C46.9879 67.7504 46.6708 68.3236 45.9513 68.6956C44.4635 69.4638 42.9696 70.2199 41.4757 70.9821C39.8843 71.7931 38.2989 72.6163 36.7013 73.409C34.9879 74.2626 33.1586 73.3297 32.8721 71.4456C32.7623 70.7443 33.0123 70.0492 33.116 69.3541C33.4208 67.3602 33.744 65.3663 34.0611 63.3724C34.3782 61.3602 34.7013 59.348 35.0184 57.3297C35.1403 56.5797 35.2623 55.8297 35.3964 55.0858C35.4452 54.8053 35.244 54.6894 35.0916 54.537C32.0245 51.4638 28.9513 48.3907 25.8842 45.3175C25.3599 44.787 24.8477 44.2443 24.2989 43.7382C23.4147 42.9151 23.0306 41.9516 23.433 40.7748C23.8233 39.6285 24.7501 39.1955 25.866 39.0248C29.366 38.476 32.8599 37.9151 36.3538 37.3602C37.8172 37.1285 39.2806 36.8785 40.7501 36.6834C41.1952 36.6224 41.433 36.4516 41.6282 36.0553C43.9391 31.4882 46.2623 26.9334 48.5855 22.3724C49.4391 20.7016 51.3721 20.3053 52.6952 21.5126C52.9757 21.7687 53.1708 22.0797 53.3416 22.4151C55.6525 26.9577 57.9696 31.5004 60.2745 36.0492C60.4818 36.4577 60.7379 36.6163 61.2013 36.6834C64.1342 37.1224 67.0672 37.6102 69.994 38.0858C72.1342 38.4273 74.2806 38.7748 76.4208 39.1102C77.4513 39.2748 78.1647 39.8419 78.494 40.8297C78.8172 41.8114 78.616 42.7138 77.8843 43.4516C76.2989 45.0553 74.7013 46.6468 73.1038 48.2443C71.0062 50.3419 68.9147 52.4395 66.8111 54.5309C66.5794 54.7626 66.5123 54.9577 66.5672 55.3053C67.0489 58.2687 67.494 61.2382 67.9574 64.2077C68.2989 66.3846 68.6464 68.5614 69.0001 70.7382C69.1647 71.7321 68.8416 72.5431 68.0794 73.1651C67.2928 73.8053 66.3782 73.9517 65.4635 73.5187C63.9513 72.7992 62.4757 72.0126 60.9818 71.2504C59.2928 70.3907 57.6038 69.5248 55.9086 68.6773C55.3355 68.3907 55.0001 67.9273 55.0245 67.3053C55.0489 66.7077 55.3903 66.2687 55.9757 66.0492C56.4391 65.8785 56.8538 66.0187 57.2562 66.226C60.0916 67.6712 62.9208 69.1224 65.7562 70.5675C65.8721 70.6285 65.9635 70.7321 66.1586 70.6895L66.1464 70.6834Z" fill="url(#paint0_linear_36_1320)"/>
<path d="M50.9192 66.098C50.1265 66.098 49.4802 65.4578 49.4924 64.7017C49.5046 63.9578 50.2058 63.2809 50.9558 63.3053C51.7302 63.3297 52.3948 63.9883 52.3887 64.7383C52.3887 65.4944 51.7302 66.1041 50.9192 66.098Z" fill="url(#paint1_linear_36_1320)"/>
</g>
</g>
<defs>
<linearGradient id="paint0_linear_36_1320" x1="50.9583" y1="20.8123" x2="50.9583" y2="73.766" gradientUnits="userSpaceOnUse">
<stop offset="0.19" stop-color="#F0CB9B"/>
<stop offset="0.575" stop-color="#FFEACE"/>
<stop offset="0.89" stop-color="#C89655"/>
</linearGradient>
<linearGradient id="paint1_linear_36_1320" x1="50.9405" y1="63.3047" x2="50.9405" y2="66.0981" gradientUnits="userSpaceOnUse">
<stop offset="0.19" stop-color="#F0CB9B"/>
<stop offset="0.575" stop-color="#FFEACE"/>
<stop offset="0.89" stop-color="#C89655"/>
</linearGradient>
<clipPath id="clip0_36_1320">
<rect width="100" height="100" fill="white" transform="translate(0.5)"/>
</clipPath>
<clipPath id="clip1_36_1320">
<rect width="100" height="100" fill="white" transform="translate(0.5)"/>
</clipPath>
</defs>
</svg>
