<svg width="101" height="100" viewBox="0 0 101 100" fill="none" xmlns="http://www.w3.org/2000/svg">
<g clip-path="url(#clip0_36_1338)">
<path d="M50.5 100C78.1142 100 100.5 77.6142 100.5 50C100.5 22.3858 78.1142 0 50.5 0C22.8858 0 0.5 22.3858 0.5 50C0.5 77.6142 22.8858 100 50.5 100Z" fill="#494949"/>
<path d="M51.091 20.8904C51.6703 21.3965 51.7983 22.0367 51.7617 22.7806C51.719 23.7075 51.7617 24.6465 51.7434 25.5733C51.7373 25.9392 51.8471 26.0611 52.2129 26.0428C52.902 26.0001 53.591 26.0245 54.2312 26.3416C55.5422 26.994 56.1703 28.0733 56.2129 29.5184C56.2312 30.1343 56.2373 30.7501 56.2129 31.3599C56.2007 31.7136 56.2922 31.8782 56.6642 31.9757C58.6276 32.5001 60.4934 33.2562 62.2556 34.2806C66.9995 37.0367 70.3837 40.9636 72.4325 46.0428C73.2068 47.9636 73.6764 49.9575 73.902 52.0123C74.3471 56.0062 73.8593 59.8782 72.2861 63.5794C69.9995 68.9514 66.2495 72.9879 61.0117 75.6221C57.1276 77.5794 52.9995 78.3355 48.6886 78.0001C44.1703 77.6465 40.091 76.0611 36.4873 73.3111C31.8532 69.7806 28.9203 65.1282 27.652 59.4575C27.0788 56.8843 27.0239 54.2684 27.3593 51.6404C27.7861 48.3294 28.8593 45.2684 30.591 42.427C33.0849 38.3355 36.53 35.3111 40.8715 33.2989C42.0544 32.7501 43.2739 32.305 44.53 31.9818C44.8959 31.8904 45.0544 31.7562 45.0361 31.3538C45.0056 30.6831 45.0239 30.0123 45.0361 29.3416C45.0666 27.5062 46.5056 26.0672 48.341 26.0367C49.1133 26.0245 49.4975 25.6343 49.4934 24.866C49.4934 24.1221 49.5239 23.3721 49.4812 22.6282C49.4447 21.927 49.5422 21.305 50.1764 20.8904H51.0727H51.091ZM33.3532 42.305C33.5239 42.3294 33.591 42.3416 33.6642 42.3416C34.4934 42.3843 35.0056 42.8172 34.9812 43.4697C34.9629 44.1404 34.4447 44.5672 33.6276 44.5855C33.2739 44.5855 32.9142 44.6221 32.5666 44.5794C32.091 44.5245 31.841 44.6953 31.6276 45.1282C30.4386 47.616 29.6703 50.2075 29.4751 52.9696C29.4446 53.3843 29.4995 53.5306 29.9446 53.5245C31.469 53.5001 32.9995 53.5001 34.5239 53.5245C34.902 53.5245 34.9812 53.4087 34.9995 53.055C35.091 51.2196 35.3166 49.3965 35.6642 47.5916C35.8227 46.7806 36.5239 46.366 37.2373 46.6465C37.7678 46.8599 38.0239 47.3904 37.8654 48.1526C37.5361 49.7379 37.3898 51.3477 37.2434 52.9514C37.2007 53.4087 37.3227 53.5245 37.7678 53.5184C39.6276 53.5001 41.4934 53.494 43.3532 53.5184C43.8227 53.5245 43.9386 53.3965 43.9386 52.9331C43.9507 50.2684 44.1215 47.616 44.4629 44.9757C44.5117 44.6221 44.3776 44.5733 44.0788 44.5672C43.5605 44.555 43.0361 44.6465 42.5239 44.5001C41.9507 44.3355 41.6276 43.866 41.6886 43.2867C41.7434 42.7623 42.1764 42.366 42.7556 42.3477C43.2556 42.3294 43.7678 42.2989 44.2617 42.3477C44.7068 42.3965 44.841 42.2075 44.8959 41.8233C45.1093 40.3965 45.4264 39.0001 45.8227 37.616C46.1398 36.5001 46.5239 35.4148 46.9873 34.2623C46.1885 34.5123 45.6032 34.927 45.0178 35.3477C43.3776 36.5367 42.1459 38.0916 41.0483 39.7684C40.591 40.4696 39.9568 40.6221 39.3959 40.2257C38.8166 39.8172 38.7434 39.1953 39.2068 38.5062C39.7922 37.6404 40.3776 36.7867 41.0422 35.9757C41.1093 35.8965 41.2861 35.8294 41.1337 35.6404C38.0056 37.1892 35.4446 39.3904 33.3349 42.2989L33.3532 42.305ZM50.6459 53.5123C51.969 53.5123 53.2922 53.5001 54.6093 53.5245C54.9873 53.5245 55.0849 53.4087 55.0666 53.0428C54.9934 51.5916 54.9751 50.1404 54.8837 48.6953C54.8044 47.4514 54.652 46.2136 54.5361 44.9757C54.5117 44.7257 54.4386 44.5733 54.1337 44.5733C51.7861 44.5855 49.4446 44.5794 47.0971 44.5733C46.8471 44.5733 46.7495 44.6526 46.719 44.9148C46.3898 47.5916 46.2434 50.2806 46.1642 52.9818C46.152 53.3904 46.2434 53.5306 46.6825 53.5184C48.0056 53.4879 49.3288 53.5062 50.6459 53.5062V53.5123ZM50.591 55.7501C49.3227 55.7501 48.0544 55.7745 46.7922 55.7379C46.2678 55.7197 46.152 55.8965 46.1642 56.3904C46.2495 58.9757 46.3837 61.555 46.7007 64.1221C46.7617 64.5916 46.9081 64.7014 47.341 64.6953C49.5422 64.677 51.7373 64.6709 53.9386 64.6953C54.3898 64.6953 54.5178 64.5245 54.5605 64.1343C54.8593 61.5062 54.9995 58.866 55.0849 56.2257C55.0971 55.8599 54.9873 55.7379 54.6215 55.744C53.28 55.7623 51.9386 55.7501 50.5971 55.7501H50.591ZM40.5849 55.7501C39.8227 55.7501 39.0605 55.7501 38.2983 55.7501C37.2617 55.7501 37.2861 55.7501 37.3227 56.7684C37.4264 59.3172 37.9386 61.7928 38.6764 64.2258C38.78 64.5672 38.9325 64.6953 39.2922 64.6892C40.8898 64.6709 42.4934 64.677 44.091 64.6892C44.4142 64.6892 44.5178 64.6038 44.4751 64.2745C44.1215 61.5977 43.9751 58.9087 43.9446 56.2136C43.9446 55.7989 43.7922 55.7257 43.4264 55.7318C42.4751 55.7501 41.53 55.7379 40.5788 55.7379L40.5849 55.7501ZM60.6215 53.5123C61.5361 53.5123 62.4446 53.4818 63.3532 53.5306C63.8593 53.555 63.9873 53.3965 63.9568 52.9087C63.7983 50.177 63.2983 47.5123 62.4934 44.9026C62.4081 44.6343 62.2495 44.5794 61.9995 44.5794C60.402 44.5794 58.7983 44.5855 57.2007 44.5733C56.8532 44.5733 56.7434 44.6953 56.78 45.0306C56.8715 45.7501 56.9629 46.4636 57.0056 47.1892C57.1215 49.1587 57.219 51.1221 57.3044 53.0916C57.3166 53.4453 57.4446 53.5306 57.7739 53.5245C58.7251 53.5062 59.6703 53.5245 60.6215 53.5245V53.5123ZM60.7068 55.7501C59.7556 55.7501 58.8044 55.7684 57.8593 55.7379C57.4629 55.7257 57.3044 55.8233 57.2922 56.2501C57.2739 57.4026 57.2068 58.555 57.152 59.7075C57.0849 61.116 56.9812 62.5245 56.8044 63.927C56.7068 64.6709 56.7373 64.677 57.4751 64.6831C58.6703 64.6831 59.8593 64.6831 61.0544 64.6831C62.2922 64.6831 62.3044 64.6831 62.6703 63.4757C63.3898 61.1099 63.8105 58.6892 63.9629 56.2136C63.9873 55.8355 63.8654 55.7318 63.5056 55.7379C62.5727 55.7562 61.6398 55.744 60.7129 55.744L60.7068 55.7501ZM68.9995 55.7501C68.219 55.7501 67.4386 55.7623 66.652 55.7501C66.3227 55.744 66.1947 55.8477 66.1825 56.1892C66.0788 58.8721 65.6154 61.494 64.8288 64.055C64.6581 64.6099 64.8532 64.7014 65.3288 64.6953C66.3166 64.6831 67.3044 64.6343 68.2861 64.7136C69.0788 64.7806 69.4568 64.494 69.7861 63.7806C70.8715 61.427 71.5056 58.9696 71.7861 56.4087C71.8349 55.9331 71.7373 55.7014 71.1825 55.7379C70.4629 55.7867 69.7312 55.7501 69.0056 55.7501H68.9995ZM64.7678 44.5855C64.7983 44.7257 64.8105 44.8172 64.8349 44.9026C65.6032 47.5855 66.1154 50.3111 66.1886 53.1038C66.2008 53.4575 66.3776 53.5245 66.6886 53.5184C68.1764 53.5062 69.6703 53.4879 71.1581 53.5367C71.7068 53.555 71.8227 53.3843 71.7739 52.8843C71.4934 50.0855 70.78 47.4148 69.4873 44.9148C69.402 44.7501 69.3349 44.5855 69.091 44.5855C67.6581 44.5916 66.2312 44.5855 64.7617 44.5855H64.7678ZM32.1946 55.7562C31.3959 55.7562 30.591 55.7562 29.7922 55.7562C29.5666 55.7562 29.4264 55.7745 29.4446 56.0916C29.6581 58.994 30.4325 61.7379 31.7312 64.3355C31.8532 64.5794 31.9934 64.7014 32.28 64.6953C33.5483 64.6831 34.8105 64.6831 36.0788 64.6953C36.3898 64.6953 36.4629 64.6343 36.3654 64.3111C35.5605 61.6526 35.1398 58.927 35.0117 56.1587C34.9934 55.7867 34.841 55.744 34.5361 55.744C33.7556 55.7562 32.9751 55.744 32.1886 55.7501L32.1946 55.7562ZM50.6093 42.3477C51.6154 42.3477 52.6215 42.3355 53.6276 42.3599C54.0727 42.3721 54.2007 42.2623 54.0361 41.8233C53.9386 41.5672 53.9446 41.2806 53.8898 41.0062C53.4507 38.8416 52.9568 36.6953 51.8776 34.7318C51.5727 34.1831 51.2739 33.4453 50.5971 33.4636C49.9264 33.4818 49.6337 34.2136 49.341 34.7684C48.1337 37.0367 47.6276 39.5245 47.1581 42.0184C47.0971 42.3355 47.2434 42.3538 47.4873 42.3538C48.53 42.3477 49.5727 42.3538 50.6154 42.3538L50.6093 42.3477ZM50.6093 66.9392C50.6093 66.9392 50.6093 66.9331 50.6093 66.927C49.6032 66.927 48.5971 66.9453 47.5971 66.9148C47.1764 66.9026 47.1093 67.055 47.1825 67.4209C47.4873 68.9575 47.7983 70.494 48.2983 71.9879C48.6825 73.1343 49.0849 74.2684 49.8288 75.244C50.402 75.994 50.8532 75.994 51.4142 75.2562C51.7983 74.7501 52.091 74.1953 52.3471 73.6099C53.219 71.5916 53.6703 69.4575 54.0849 67.3111C54.152 66.9757 54.0117 66.9331 53.7434 66.9331C52.7007 66.9331 51.6581 66.9331 50.6154 66.9331L50.6093 66.9392ZM54.2373 34.2745C54.5117 35.0245 54.7739 35.677 54.9995 36.3416C55.6154 38.1648 56.03 40.0367 56.341 41.9331C56.3898 42.2136 56.4751 42.3599 56.7983 42.3599C58.2495 42.3477 59.7007 42.3477 61.1581 42.3599C61.4447 42.3599 61.469 42.2684 61.3593 42.0306C60.2007 39.5611 58.7068 37.3355 56.5544 35.6099C55.8776 35.0672 55.1642 34.5672 54.2434 34.2806L54.2373 34.2745ZM47.0849 75.0489C46.9081 74.6404 46.7556 74.3294 46.6337 74.0123C45.8471 71.9087 45.2922 69.744 44.9446 67.5245C44.8776 67.0916 44.7312 66.9026 44.2434 66.9148C42.8654 66.9514 41.4873 66.9331 40.1093 66.927C39.8349 66.927 39.7251 66.9453 39.8715 67.2623C41.0361 69.7318 42.5422 71.9453 44.7007 73.6587C45.3898 74.2075 46.1337 74.6892 47.0727 75.055L47.0849 75.0489ZM54.1459 75.1099C54.7495 74.8355 55.2007 74.616 55.6215 74.3416C58.2434 72.6099 59.9142 70.116 61.2312 67.3355C61.4081 66.9636 61.2434 66.9453 60.9507 66.9453C59.5727 66.9453 58.1946 66.9453 56.8166 66.927C56.4873 66.927 56.3837 67.0489 56.3349 67.3721C56.0666 69.0123 55.7068 70.6343 55.219 72.2318C54.9325 73.1648 54.5971 74.0794 54.1459 75.116V75.1099ZM47.2861 30.1953C47.2861 30.4575 47.3044 30.7197 47.2861 30.9757C47.2556 31.3172 47.3593 31.427 47.7251 31.3721C49.6885 31.0855 51.652 31.0977 53.6093 31.3782C53.9203 31.4209 53.9995 31.3355 53.9873 31.0306C53.969 30.5489 53.9995 30.0611 53.9873 29.5794C53.9568 28.6831 53.5178 28.2684 52.6154 28.2684C51.4812 28.2684 50.3471 28.305 49.2129 28.2623C47.719 28.2075 47.1825 28.5123 47.2922 30.1953H47.2861ZM60.0117 35.7014C61.6032 37.6526 62.8593 39.7867 63.8227 42.0977C63.9264 42.3477 64.1032 42.3538 64.3105 42.3538C65.3532 42.3538 66.3898 42.3538 67.4325 42.3538C67.5544 42.3538 67.7129 42.4209 67.7861 42.2806C67.8654 42.1343 67.7068 42.0489 67.6337 41.9514C66.6581 40.6343 65.5422 39.4331 64.28 38.3843C62.9812 37.3111 61.5971 36.3538 60.0056 35.7014H60.0117ZM59.9873 73.5672C63.1642 72.055 65.7617 69.866 67.902 66.9209C66.5544 66.9209 65.3471 66.927 64.1398 66.9209C63.8776 66.9209 63.7922 67.0672 63.7068 67.2623C62.7556 69.5306 61.53 71.6404 59.9873 73.5672ZM33.4142 66.9148C35.0117 69.6404 39.3044 72.9697 41.3532 73.5794C39.7068 71.6465 38.3959 69.5428 37.4446 67.2318C37.3471 66.9879 37.1886 66.9087 36.9325 66.9148C35.78 66.927 34.6276 66.9148 33.4081 66.9148H33.4142Z" fill="url(#paint0_linear_36_1338)"/>
<path d="M79.2677 28.9392C79.0299 29.4209 78.6213 29.6648 78.1213 29.8233C76.9018 30.2135 75.7006 30.6465 74.4811 31.0245C74.1396 31.1282 73.9628 31.2867 73.853 31.6282C73.4445 32.9148 72.9994 34.1953 72.5665 35.4757C72.3347 36.1648 71.9994 36.4331 71.4262 36.427C70.8043 36.4209 70.4994 36.0245 70.3225 35.494C69.9018 34.244 69.4689 33.0062 69.0908 31.744C68.9628 31.3111 68.7189 31.1099 68.3164 30.9818C67.0482 30.5733 65.7799 30.1587 64.5238 29.7196C63.6823 29.427 63.3835 28.6709 63.8165 28.0123C64.0116 27.7135 64.3164 27.5855 64.6396 27.4757C65.9079 27.055 67.1701 26.6282 68.4384 26.2135C68.7433 26.116 68.9262 25.9757 69.0299 25.6404C69.353 24.5977 69.7494 23.5794 70.0786 22.5367C70.2738 21.9148 70.4811 21.3172 70.9933 20.8843H71.8896C72.3652 21.2745 72.5908 21.7989 72.7738 22.366C73.1152 23.427 73.4872 24.4696 73.8225 25.5306C73.9384 25.8965 74.1152 26.116 74.5055 26.2379C75.7067 26.6099 76.8896 27.0428 78.0908 27.4209C78.5908 27.5794 78.9994 27.8111 79.2738 28.2623V28.9331L79.2677 28.9392ZM71.5116 25.6404C71.0604 26.3782 71.0786 27.2257 70.5055 27.7623C69.9506 28.2806 69.1091 28.2501 68.3896 28.6526C68.9567 28.8477 69.4445 29.0184 69.9323 29.177C70.4323 29.3355 70.7555 29.6343 70.8957 30.1526C71.0299 30.6404 71.225 31.116 71.4445 31.7379C71.6518 31.1404 71.8286 30.6892 71.9689 30.2196C72.1335 29.6465 72.4872 29.305 73.0604 29.1465C73.5299 29.0123 73.9811 28.8233 74.4384 28.6587L74.5177 28.5123C72.7189 28.3721 71.7006 27.4392 71.5116 25.6404Z" fill="url(#paint1_linear_36_1338)"/>
<path d="M34.7685 20.8904C35.4026 21.2745 35.6648 21.9391 35.8904 22.5672C36.3234 23.7928 37.1099 24.5916 38.3234 25.0123C38.6709 25.1343 39.0002 25.3233 39.3234 25.5062C40.1831 25.994 40.1892 27.0428 39.3234 27.5184C38.5916 27.9209 37.8356 28.2867 37.0795 28.6404C36.8051 28.7684 36.6404 28.9391 36.5124 29.2074C36.1709 29.9331 35.8051 30.6404 35.4453 31.3538C35.2319 31.7806 34.9331 32.0672 34.4148 32.0733C33.8782 32.0794 33.5429 31.805 33.3173 31.3599C33.0612 30.866 32.7685 30.3843 32.5734 29.8599C32.2868 29.0977 31.799 28.5977 31.0368 28.305C30.5185 28.1099 30.0368 27.8111 29.5368 27.5672C29.0795 27.3416 28.7929 26.994 28.8051 26.4757C28.8173 25.9879 29.0795 25.6526 29.5307 25.4391C30.116 25.1648 30.677 24.8172 31.2746 24.5733C31.8416 24.3416 32.2136 23.9818 32.4453 23.4087C32.677 22.8233 33.0124 22.2806 33.2685 21.7013C33.427 21.3416 33.7136 21.116 33.9941 20.8782H34.7746L34.7685 20.8904ZM34.3721 24.6465C34.0551 25.5977 33.3965 26.1404 32.5246 26.5428C33.4636 26.8538 34.0246 27.4818 34.3843 28.3721C34.7197 27.4696 35.3112 26.866 36.2136 26.5245C35.3295 26.1343 34.7075 25.5733 34.3721 24.6404V24.6465Z" fill="url(#paint2_linear_36_1338)"/>
<path d="M28.7252 35.622C28.7252 36.2257 28.2313 36.7135 27.5788 36.7622C27.2313 36.7866 26.7801 36.6159 26.5727 36.8598C26.402 37.061 26.5118 37.494 26.4935 37.8293C26.4569 38.5001 25.9752 38.994 25.3715 38.994C24.7801 38.994 24.2923 38.4757 24.2618 37.8232C24.2293 37.1566 23.8858 36.8049 23.2313 36.7683C22.5423 36.7257 22.0057 36.2318 22.0118 35.6342C22.0118 35.0244 22.5423 34.5549 23.2496 34.5366C23.9081 34.5204 24.2455 34.1789 24.2618 33.5122C24.2801 32.7866 24.7191 32.311 25.3715 32.3049C26.0179 32.3049 26.4691 32.7866 26.4935 33.5001C26.5138 34.1627 26.8675 34.5082 27.5545 34.5366C28.2313 34.561 28.7252 35.0244 28.7313 35.6281L28.7252 35.622Z" fill="url(#paint3_linear_36_1338)"/>
<path d="M37.2305 43.427C37.2305 42.8294 37.7244 42.3538 38.3402 42.3599C38.9561 42.366 39.4622 42.8599 39.4561 43.4453C39.4561 44.0124 38.9256 44.5489 38.3524 44.5672C37.7549 44.5855 37.2366 44.055 37.2305 43.4209V43.427Z" fill="url(#paint4_linear_36_1338)"/>
</g>
<defs>
<linearGradient id="paint0_linear_36_1338" x1="50.6058" y1="20.8904" x2="50.6058" y2="78.077" gradientUnits="userSpaceOnUse">
<stop offset="0.19" stop-color="#F0CB9B"/>
<stop offset="0.575" stop-color="#FFEACE"/>
<stop offset="0.89" stop-color="#C89655"/>
</linearGradient>
<linearGradient id="paint1_linear_36_1338" x1="71.4465" y1="20.8843" x2="71.4465" y2="36.4271" gradientUnits="userSpaceOnUse">
<stop offset="0.19" stop-color="#F0CB9B"/>
<stop offset="0.575" stop-color="#FFEACE"/>
<stop offset="0.89" stop-color="#C89655"/>
</linearGradient>
<linearGradient id="paint2_linear_36_1338" x1="34.3876" y1="20.8782" x2="34.3876" y2="32.0734" gradientUnits="userSpaceOnUse">
<stop offset="0.19" stop-color="#F0CB9B"/>
<stop offset="0.575" stop-color="#FFEACE"/>
<stop offset="0.89" stop-color="#C89655"/>
</linearGradient>
<linearGradient id="paint3_linear_36_1338" x1="25.3715" y1="32.3049" x2="25.3715" y2="38.994" gradientUnits="userSpaceOnUse">
<stop offset="0.19" stop-color="#F0CB9B"/>
<stop offset="0.575" stop-color="#FFEACE"/>
<stop offset="0.89" stop-color="#C89655"/>
</linearGradient>
<linearGradient id="paint4_linear_36_1338" x1="38.3433" y1="42.3599" x2="38.3433" y2="44.5677" gradientUnits="userSpaceOnUse">
<stop offset="0.19" stop-color="#F0CB9B"/>
<stop offset="0.575" stop-color="#FFEACE"/>
<stop offset="0.89" stop-color="#C89655"/>
</linearGradient>
<clipPath id="clip0_36_1338">
<rect width="100" height="100" fill="white" transform="translate(0.5)"/>
</clipPath>
</defs>
</svg>
