<svg width="101" height="100" viewBox="0 0 101 100" fill="none" xmlns="http://www.w3.org/2000/svg">
<g clip-path="url(#clip0_36_1350)">
<path d="M50.5 100C78.1142 100 100.5 77.6142 100.5 50C100.5 22.3858 78.1142 0 50.5 0C22.8858 0 0.5 22.3858 0.5 50C0.5 77.6142 22.8858 100 50.5 100Z" fill="#2B2B2B"/>
<path d="M21.4141 33.311C21.7311 32.5 21.9324 31.6402 22.475 30.9146C23.8531 29.0732 25.7128 28.2927 27.9385 28.6463C30.3287 29.0244 32.1153 30.8415 32.5665 33.061C32.7311 33.878 32.7616 34.7012 32.536 35.5061C32.4324 35.8719 32.5482 35.9268 32.8592 35.9024C33.9567 35.811 34.8409 36.2683 35.6702 36.9512C38.8653 39.5854 42.5238 41.1829 46.6214 41.7744C53.1153 42.7134 59.0421 41.3232 64.3226 37.3719C64.9811 36.878 65.5604 36.2683 66.3775 36.0244C66.7189 35.9207 67.0787 35.8537 67.4324 35.9085C67.9141 35.9756 68.0604 35.8841 67.9507 35.3354C67.3531 32.439 69.1397 29.561 71.9811 28.7622C75.1519 27.8719 78.4628 30.0183 78.9811 33.25C79.3165 35.3597 78.6885 37.0854 77.097 38.4817C76.8897 38.6646 76.8348 38.8537 76.8348 39.1158C76.8348 46.0244 76.8409 52.9329 76.8348 59.8354C76.8348 60.1463 76.9141 60.3232 77.2128 60.4756C78.4506 61.1219 79.0726 62.1707 79.0909 63.5671C79.097 64.2622 79.097 64.9573 79.0909 65.6524C79.0848 66.3902 78.6397 66.8597 77.908 66.8597C74.9445 66.8658 71.975 66.8658 69.0116 66.8597C68.408 66.8597 67.8897 66.4695 67.8592 65.9146C67.8104 64.9024 67.7372 63.8841 67.8958 62.8841C68.0726 61.7866 68.7067 60.9634 69.7189 60.4695C69.9933 60.3354 70.0909 60.189 70.0909 59.878C70.0787 53.7439 70.0848 47.6037 70.0787 41.4695C70.0787 41.4512 70.0665 41.4329 70.0421 41.378C68.7311 42.561 67.3165 43.5793 65.8226 44.4878C62.6885 46.3963 59.3104 47.6707 55.7128 48.3658C54.9506 48.5122 54.3287 48.1646 54.2067 47.5488C54.0665 46.8232 54.4689 46.2988 55.2921 46.1402C59.9385 45.25 64.1092 43.3293 67.7921 40.3476C68.1885 40.0305 68.5299 39.6768 68.4628 39.1341C68.3531 38.2195 67.3531 37.8476 66.5787 38.4512C65.8104 39.0549 65.0543 39.6646 64.2372 40.2012C61.1702 42.2195 57.8226 43.4756 54.1945 44.0122C48.3531 44.8719 42.8348 43.9146 37.658 41.061C36.3409 40.3354 35.1336 39.4451 33.975 38.4939C33.2006 37.8597 32.2555 38.1524 32.0543 39.0793C31.9263 39.6707 32.3043 40.0244 32.7067 40.3476C33.9811 41.3719 35.3226 42.2927 36.7494 43.0915C39.4019 44.5732 42.2189 45.5793 45.1946 46.1463C46.0055 46.2988 46.4385 46.8354 46.2982 47.5427C46.1763 48.1585 45.536 48.5183 44.7982 48.378C43.1641 48.061 41.5665 47.628 39.9994 47.0549C36.7433 45.8719 33.786 44.1768 31.1214 41.9695C30.9141 41.7988 30.7128 41.6098 30.5055 41.4268C30.3531 41.5854 30.4263 41.7622 30.4263 41.9146C30.4263 47.8841 30.4263 53.8537 30.4141 59.8232C30.4141 60.1707 30.5177 60.3354 30.8287 60.5C32.0421 61.1402 32.658 62.1768 32.6763 63.5549C32.6885 64.2683 32.6824 64.9817 32.6763 65.6951C32.6702 66.3902 32.2128 66.8719 31.5177 66.8719C28.536 66.8841 25.5482 66.8719 22.5665 66.8841C22.0299 66.8841 21.7616 66.4939 21.4141 66.2012C21.4141 65.0366 21.4141 63.8719 21.4141 62.7073C21.4872 62.5793 21.5848 62.4573 21.6336 62.3232C21.9324 61.4878 22.4872 60.8658 23.2799 60.4939C23.6153 60.3354 23.6763 60.1402 23.6763 59.8049C23.6702 52.939 23.6763 46.0793 23.6763 39.2134C23.6763 38.8902 23.6031 38.6585 23.3409 38.439C22.8287 38.0244 22.4324 37.5 22.1031 36.9268C21.7738 36.3537 21.6763 35.7012 21.4202 35.1098V33.3049L21.4141 33.311ZM72.3226 49.8658C72.3226 52.7378 72.3226 55.6098 72.3226 58.4817C72.3226 59.0061 72.1031 59.689 72.408 60.0061C72.7433 60.3537 73.4385 60.0549 73.975 60.128C74.4872 60.1951 74.5909 60 74.5909 59.5122C74.5726 53.2256 74.5787 46.9329 74.5787 40.6463C74.5787 40.4573 74.5726 40.2683 74.5787 40.0854C74.5909 39.8293 74.5421 39.7317 74.2311 39.7805C73.7921 39.8476 73.3104 39.9146 72.8897 39.811C72.2921 39.6585 72.3104 39.9268 72.3104 40.3598C72.3226 43.5305 72.3165 46.7073 72.3104 49.878L72.3226 49.8658ZM28.1702 49.9207C28.1702 46.6951 28.1702 43.4695 28.1763 40.2378C28.1763 39.8658 28.1519 39.6951 27.6946 39.7927C27.2982 39.878 26.8531 39.9024 26.4689 39.8049C25.9141 39.6646 25.908 39.8963 25.9141 40.3232C25.9263 46.7195 25.9202 53.1158 25.9202 59.5122C25.9202 59.6037 25.9263 59.7012 25.9202 59.7927C25.8958 60.0366 25.9933 60.128 26.2433 60.1158C26.6946 60.1036 27.1458 60.0793 27.5909 60.1219C28.0604 60.1646 28.1885 60.0122 28.1824 59.5427C28.1641 56.3354 28.1702 53.128 28.1702 49.9207ZM73.4567 30.8293C71.6153 30.8293 70.0665 32.3597 70.0665 34.1768C70.0665 36.0793 71.5604 37.5793 73.4446 37.5793C75.3409 37.5793 76.8165 36.0915 76.8287 34.1829C76.8348 32.3537 75.3043 30.8293 73.4567 30.8232V30.8293ZM27.0116 30.8293C25.2189 30.8415 23.6702 32.3841 23.6641 34.1646C23.6641 36.0549 25.158 37.5732 27.0299 37.5793C28.9324 37.5793 30.4385 36.0549 30.4263 34.1463C30.408 32.3354 28.8531 30.8232 27.0116 30.8293ZM73.4263 64.6219C74.2311 64.6219 75.036 64.6219 75.8409 64.6219C76.5319 64.6219 76.8633 64.2703 76.8348 63.5671C76.8043 62.8415 76.3958 62.378 75.7006 62.3658C74.2067 62.3476 72.7067 62.3476 71.2128 62.3658C70.5421 62.378 70.1092 62.8476 70.0787 63.5122C70.0665 63.7561 70.0909 64 70.0787 64.2439C70.0543 64.5427 70.1702 64.628 70.4628 64.6219C71.4567 64.6037 72.4446 64.6158 73.4385 64.6158L73.4263 64.6219ZM27.0482 64.6219C27.8531 64.6219 28.6641 64.6219 29.4689 64.6219C30.1234 64.6219 30.4425 64.2947 30.4263 63.6402C30.408 62.8719 30.0055 62.3841 29.2982 62.3719C27.7982 62.3476 26.2982 62.3537 24.7982 62.3719C24.1336 62.3841 23.7006 62.8598 23.6702 63.5305C23.658 63.7378 23.6885 63.9451 23.6702 64.1463C23.6275 64.5061 23.7494 64.6341 24.1275 64.6219C25.1031 64.5976 26.0787 64.6158 27.0543 64.6158L27.0482 64.6219Z" fill="white"/>
<path d="M30.7621 76.561C29.8292 75.9695 29.8658 75.3598 30.2621 74.5793C33.945 67.25 37.6097 59.9086 41.2682 52.5671C41.5426 52.0183 41.945 51.7805 42.5609 51.7805C47.6645 51.7927 52.7743 51.7927 57.878 51.7805C58.5426 51.7805 58.9633 52.0366 59.256 52.6281C62.9206 59.9695 66.5914 67.3049 70.256 74.6403C70.7194 75.5671 70.5975 75.9817 69.7316 76.5671H30.7621V76.561ZM50.2255 74.311C55.7987 74.311 61.3719 74.311 66.9389 74.311C67.3495 74.311 67.4654 74.1301 67.2865 73.7683C64.0792 67.3415 60.8658 60.9147 57.6645 54.4817C57.4999 54.1525 57.317 54.0244 56.945 54.0305C52.4633 54.0427 47.9755 54.0427 43.4938 54.0305C43.1645 54.0305 42.9999 54.1403 42.8536 54.4269C39.6462 60.8659 36.4328 67.2988 33.2194 73.7317C32.9328 74.3049 32.9389 74.311 33.5609 74.311C39.1158 74.311 44.6645 74.311 50.2194 74.311H50.2255Z" fill="white"/>
<path d="M60.3902 27.0245C60.3841 27.6647 60.1767 28.2379 59.7438 28.7135C59.0731 29.4452 58.4267 30.2135 57.695 30.8782C57.0914 31.4269 56.9755 32.0062 57.1219 32.7623C57.2987 33.6586 57.4206 34.5672 57.5304 35.4757C57.7743 37.4391 55.7194 39.0123 53.8719 38.244C52.7682 37.7867 51.695 37.244 50.6219 36.7135C50.3231 36.5672 50.0792 36.5733 49.7804 36.7257C48.8292 37.2074 47.8658 37.6708 46.9024 38.1343C45.8841 38.6221 44.8902 38.5611 43.9938 37.866C43.128 37.1891 42.817 36.2806 43.006 35.1769C43.195 34.055 43.2987 32.9208 43.4572 31.7867C43.4938 31.5306 43.3231 31.4147 43.1889 31.2684C42.4389 30.4818 41.6828 29.6952 40.9267 28.9147C40.1402 28.0977 39.8963 27.1343 40.2682 26.0733C40.6219 25.0733 41.4085 24.5184 42.4328 24.3172C43.5121 24.1099 44.5914 23.9208 45.6767 23.7318C45.9755 23.6769 46.1706 23.5428 46.3109 23.2562C46.7865 22.3233 47.2865 21.3964 47.7804 20.4757C48.2926 19.5123 49.0731 18.9208 50.1889 18.9086C51.3292 18.8964 52.1463 19.4574 52.6828 20.4391C53.2072 21.3903 53.7255 22.3477 54.2377 23.305C54.378 23.5733 54.5426 23.7135 54.8719 23.7623C55.9633 23.9208 57.0487 24.116 58.128 24.3294C59.4755 24.5916 60.3841 25.6952 60.3841 27.0245H60.3902ZM45.2194 35.7928C45.2194 36.116 45.5304 36.2745 46.0243 36.0367C47.1707 35.4879 48.3231 34.9391 49.4572 34.366C49.9694 34.1038 50.4328 34.1038 50.945 34.3599C52.0853 34.9269 53.2438 35.4574 54.3902 36.0062C54.6097 36.1099 54.8414 36.2501 55.0792 36.0977C55.3292 35.9391 55.2621 35.6891 55.2255 35.4391C55.0548 34.2196 54.9572 32.9879 54.7255 31.7806C54.5975 31.116 54.7926 30.6647 55.2255 30.2196C56.1219 29.2867 57.0182 28.3538 57.8963 27.4025C58.2987 26.9696 58.195 26.6586 57.6158 26.555C56.5365 26.3538 55.4511 26.1343 54.3658 25.994C53.4206 25.8721 52.7499 25.5062 52.3414 24.5794C51.9145 23.6038 51.3414 22.6952 50.8231 21.7623C50.6828 21.5123 50.6219 21.1525 50.2316 21.1708C49.8902 21.1891 49.8109 21.5062 49.6828 21.7501C49.0914 22.8538 48.4938 23.9574 47.9085 25.0733C47.6889 25.4818 47.3841 25.7135 46.9146 25.7989C45.5914 26.0306 44.2743 26.305 42.9511 26.5489C42.7133 26.5916 42.506 26.6343 42.4024 26.8721C42.2926 27.1343 42.4877 27.2928 42.6402 27.4513C43.5182 28.3721 44.3963 29.305 45.2926 30.2074C45.6706 30.5855 45.8292 30.994 45.7621 31.5184C45.5792 32.9086 45.4085 34.2989 45.2194 35.805V35.7928Z" fill="white"/>
<path d="M50.2372 48.8537C49.5786 48.8537 49.1091 48.3659 49.1213 47.7013C49.1335 47.122 49.6762 46.5976 50.2555 46.6098C50.8591 46.6281 51.3652 47.1342 51.3713 47.7257C51.3713 48.3781 50.8957 48.8598 50.2372 48.8537Z" fill="white"/>
<g clip-path="url(#clip1_36_1350)">
<path d="M50.5 100C78.1142 100 100.5 77.6142 100.5 50C100.5 22.3858 78.1142 0 50.5 0C22.8858 0 0.5 22.3858 0.5 50C0.5 77.6142 22.8858 100 50.5 100Z" fill="#494949"/>
<path d="M21.2929 78.8781C21.2929 78.366 21.3234 77.8477 21.2746 77.3416C21.2319 76.8538 21.4271 76.7745 21.8661 76.7806C24.9454 76.7989 28.0185 76.7806 31.0978 76.805C31.6527 76.805 31.7746 76.6525 31.7685 76.122C31.7441 71.2806 31.7502 66.4391 31.7685 61.5977C31.7685 61.1342 31.6527 61.0184 31.1893 61.0184C28.0917 61.0367 24.9941 61.0184 21.8966 61.0367C21.4088 61.0367 21.2319 60.9147 21.2868 60.4269C21.3478 59.9452 21.0734 59.305 21.3905 59.0245C21.6588 58.7867 22.2868 58.9391 22.7563 58.933C25.9576 58.933 29.1588 58.933 32.36 58.933C32.6649 58.933 32.9758 58.8781 33.2685 59.0306C33.5368 59.1708 33.6893 58.9574 33.8539 58.8233C34.5978 58.2135 35.3295 57.5916 36.0612 56.9757C35.9637 56.7379 35.7685 56.8477 35.6283 56.8416C33.3905 56.8294 31.1527 56.8355 28.921 56.8294C25.2319 56.8172 22.4576 54.6891 21.5063 51.1281C21.3844 50.6769 21.3417 50.2013 21.3173 49.7379C21.2685 48.8599 21.6466 48.4513 22.5368 48.4269C23.3356 48.4086 24.1405 48.4025 24.9393 48.4269C25.3539 48.4391 25.4941 48.3416 25.5063 47.8903C25.7624 36.6647 32.6893 26.8659 43.1954 22.8477C45.7868 21.8538 48.4758 21.305 51.2502 21.1525C51.6466 21.1281 51.7868 21.0245 51.7685 20.622C51.738 19.8842 51.738 19.1464 51.7685 18.4086C51.7807 18.0123 51.61 17.9147 51.2563 17.9391C50.8661 17.9635 50.4758 17.9269 50.0856 17.9452C49.7746 17.9574 49.6588 17.8538 49.6405 17.5306C49.5429 15.872 49.5368 15.8659 51.1527 15.8659C52.61 15.8659 54.0673 15.8781 55.5246 15.8538C55.9149 15.8477 56.0307 15.9574 55.9941 16.3355C55.9454 16.8416 56.2015 17.4879 55.8905 17.8233C55.5734 18.1708 54.921 17.933 54.4149 17.933C54.0185 17.933 53.8722 18.0489 53.8844 18.4513C53.9088 19.2074 53.9027 19.9696 53.8844 20.7257C53.8722 21.0611 54.0002 21.1281 54.3112 21.1464C62.2197 21.6647 68.7441 24.9696 73.8417 31.0184C76.8905 34.6342 78.8234 38.8111 79.671 43.4818C79.9332 44.9391 80.0734 46.3964 80.1283 47.8659C80.1405 48.2745 80.2319 48.4452 80.6771 48.4269C81.4149 48.3964 82.1527 48.433 82.8905 48.4147C83.5368 48.3964 84.0673 48.555 84.3356 49.2013V50.433C84.299 50.5001 84.238 50.5611 84.2258 50.6281C83.9088 52.5794 82.9393 54.1342 81.3722 55.3355C80.2197 56.2135 78.8905 56.6281 77.4149 56.8355C77.7136 57.4696 78.0002 58.0611 78.0429 58.7196C78.1344 60.1891 77.61 61.4025 76.4697 62.3416C72.3783 65.7257 68.2563 69.0733 64.2015 72.5001C62.4027 74.0184 60.4027 74.7196 58.0612 74.6891C53.8356 74.6403 49.61 74.6769 45.3844 74.6769C41.7319 74.6769 38.0856 74.683 34.4332 74.6708C33.9758 74.6708 33.8234 74.7867 33.8478 75.2501C33.8844 75.9879 33.8234 76.7257 33.8661 77.4635C33.9088 78.116 33.6893 78.5733 33.1161 78.8721H21.299L21.2929 78.8781ZM52.799 48.3598C60.9454 48.3659 69.0856 48.3659 77.2319 48.3659C78.049 48.3659 78.0612 48.3659 78.0185 47.5306C77.86 44.0611 77.0734 40.744 75.5734 37.6038C73.5734 33.4147 70.6527 29.994 66.7868 27.4574C61.2258 23.805 55.1161 22.4452 48.5246 23.5916C42.3844 24.6525 37.3173 27.6464 33.36 32.4208C29.7258 36.8111 27.8417 41.9269 27.5856 47.6403C27.5612 48.2379 27.7076 48.3781 28.3051 48.3781C36.4697 48.3538 44.6344 48.3659 52.799 48.3659V48.3598ZM46.6161 72.5916C50.5368 72.5916 54.4515 72.5794 58.3722 72.5916C60.0002 72.5977 61.4149 72.122 62.6527 71.0489C63.738 70.1098 64.86 69.2135 65.9636 68.2989C69.0002 65.7928 72.0307 63.2806 75.0673 60.7745C75.7197 60.2379 76.0551 59.5733 75.9027 58.7257C75.6588 57.3538 74.0063 56.5794 72.5734 57.622C68.8295 60.3477 65.0368 63.0123 61.2807 65.7196C60.738 66.1099 60.1893 66.2928 59.5185 66.2928C55.8905 66.2684 52.2563 66.2806 48.6222 66.2806C48.11 66.2806 47.6039 66.2806 47.0917 66.2074C45.8234 66.0306 44.7137 65.0062 44.4515 63.7196C44.1954 62.4757 44.86 61.0489 45.9637 60.4086C46.6283 60.0245 47.3478 59.9452 48.0917 59.9452C50.2076 59.9452 52.3173 59.9452 54.4332 59.933C55.2258 59.9269 55.8234 59.3538 55.9149 58.5794C56.0307 57.5611 55.3295 56.8416 54.1771 56.8416C49.7685 56.8416 45.3539 56.8538 40.9454 56.8294C39.9637 56.8294 39.1527 57.116 38.4149 57.7379C37.0673 58.8781 35.7197 60.0123 34.3478 61.122C34.0246 61.3842 33.9088 61.6464 33.9088 62.055C33.9271 65.3598 33.9393 68.6586 33.9088 71.9635C33.9088 72.4818 34.0307 72.6099 34.5429 72.6038C38.5612 72.5794 42.5856 72.5916 46.6039 72.5916H46.6161ZM52.8905 50.5489C52.8905 50.5489 52.8905 50.5367 52.8905 50.5245C43.3356 50.5245 33.7746 50.5245 24.2197 50.5245C23.4697 50.5245 23.4697 50.5184 23.738 51.244C24.5551 53.4635 26.4758 54.7257 29.0612 54.7257C37.8356 54.7257 46.6161 54.7257 55.3905 54.7257C62.1771 54.7257 68.9697 54.7257 75.7563 54.7257C76.3722 54.7257 76.9819 54.7074 77.5978 54.6464C79.6405 54.433 81.4758 52.8903 82.0185 50.9147C82.1283 50.5245 81.9941 50.5184 81.6893 50.5245C80.6039 50.5428 79.5185 50.5489 78.4271 50.5489C69.9149 50.5489 61.4027 50.5489 52.8966 50.5489H52.8905ZM69.9819 56.9147C69.8112 56.8598 69.7746 56.8416 69.738 56.8416C65.8844 56.8416 62.0307 56.8416 58.1771 56.8233C57.6649 56.8233 57.7929 57.0306 57.8844 57.3294C58.5612 59.5733 57.0551 61.8477 54.7319 62.0123C52.5246 62.1647 50.3051 62.0428 48.0917 62.0733C47.8051 62.0733 47.5063 62.0733 47.238 62.1525C46.7807 62.2867 46.5429 62.6281 46.5307 63.116C46.5185 63.5855 46.7624 63.9147 47.1588 64.0794C47.4088 64.183 47.7198 64.1891 48.0063 64.1891C51.738 64.1891 55.4697 64.183 59.2015 64.1891C59.6344 64.1891 59.988 64.0672 60.3356 63.8172C62.1283 62.5245 63.9332 61.244 65.7319 59.9574C67.1222 58.9635 68.5124 57.9635 69.9819 56.9147Z" fill="url(#paint0_linear_36_1350)"/>
<path d="M29.6714 71.5184C29.6714 73.2623 28.2506 74.6892 26.5128 74.677C24.8482 74.6709 23.3787 73.1892 23.3848 71.5184C23.3848 69.8111 24.8055 68.3904 26.5128 68.3843C28.2872 68.3843 29.6653 69.7501 29.6714 71.5184ZM27.5738 71.4879C27.5555 70.927 27.1043 70.4879 26.5372 70.494C25.9762 70.494 25.458 71.0245 25.4884 71.5611C25.5189 72.0916 26.0189 72.5672 26.5433 72.5733C27.086 72.5733 27.586 72.0489 27.5738 71.494V71.4879Z" fill="url(#paint1_linear_36_1350)"/>
<path d="M52.8062 26.3843C52.8062 27.3904 52.8062 27.3721 51.7879 27.4331C46.9952 27.7258 42.7513 29.3782 39.1049 32.5246C38.4403 33.0978 38.4525 33.1039 37.8671 32.4941C36.9952 31.5795 36.9891 31.5734 37.9647 30.7502C41.3306 27.9148 45.1842 26.1709 49.5562 25.5673C50.4098 25.4514 51.2635 25.3965 52.1232 25.3234C52.6903 25.2746 52.9037 25.4697 52.8123 26.0246C52.794 26.1465 52.8123 26.2685 52.8123 26.3904L52.8062 26.3843Z" fill="url(#paint2_linear_36_1350)"/>
<path d="M35.5424 33.1038C35.7314 33.2623 35.9021 33.4025 36.0728 33.5489C36.7517 34.1546 36.8147 34.805 36.2619 35.5001C35.9936 35.8355 35.7436 36.183 35.5058 36.5428C35.3411 36.7867 35.1887 36.866 34.9204 36.6525C34.585 36.3903 34.2192 36.1647 33.8533 35.9391C33.6277 35.7989 33.5119 35.6769 33.7131 35.4208C34.268 34.7135 34.8045 33.994 35.3533 33.2867C35.4021 33.2257 35.4631 33.183 35.5424 33.1099V33.1038Z" fill="url(#paint3_linear_36_1350)"/>
</g>
</g>
<defs>
<linearGradient id="paint0_linear_36_1350" x1="52.785" y1="15.8535" x2="52.785" y2="78.8781" gradientUnits="userSpaceOnUse">
<stop offset="0.19" stop-color="#F0CB9B"/>
<stop offset="0.575" stop-color="#FFEACE"/>
<stop offset="0.89" stop-color="#C89655"/>
</linearGradient>
<linearGradient id="paint1_linear_36_1350" x1="26.5281" y1="68.3843" x2="26.5281" y2="74.677" gradientUnits="userSpaceOnUse">
<stop offset="0.19" stop-color="#F0CB9B"/>
<stop offset="0.575" stop-color="#FFEACE"/>
<stop offset="0.89" stop-color="#C89655"/>
</linearGradient>
<linearGradient id="paint2_linear_36_1350" x1="45.0277" y1="25.3162" x2="45.0277" y2="32.953" gradientUnits="userSpaceOnUse">
<stop offset="0.19" stop-color="#F0CB9B"/>
<stop offset="0.575" stop-color="#FFEACE"/>
<stop offset="0.89" stop-color="#C89655"/>
</linearGradient>
<linearGradient id="paint3_linear_36_1350" x1="35.1217" y1="33.1038" x2="35.1217" y2="36.7763" gradientUnits="userSpaceOnUse">
<stop offset="0.19" stop-color="#F0CB9B"/>
<stop offset="0.575" stop-color="#FFEACE"/>
<stop offset="0.89" stop-color="#C89655"/>
</linearGradient>
<clipPath id="clip0_36_1350">
<rect width="100" height="100" fill="white" transform="translate(0.5)"/>
</clipPath>
<clipPath id="clip1_36_1350">
<rect width="100" height="100" fill="white" transform="translate(0.5)"/>
</clipPath>
</defs>
</svg>
